<svg width="20" height="20" viewBox="0 0 20 20" fill="none" xmlns="http://www.w3.org/2000/svg">
<path d="M9.72851 0.502041C9.93 0.477752 10.1569 0.501731 10.3593 0.511912C10.3994 0.51414 10.4395 0.516714 10.4795 0.519633C10.5196 0.522552 10.5596 0.525817 10.5996 0.529426C10.6396 0.533035 10.6796 0.536989 10.7195 0.541287C10.7595 0.545585 10.7994 0.550228 10.8392 0.555215C10.8791 0.560201 10.9189 0.56553 10.9586 0.571203C10.9984 0.576876 11.0381 0.582891 11.0778 0.589248C11.1174 0.595606 11.157 0.602305 11.1966 0.609346C11.2361 0.616386 11.2756 0.623767 11.315 0.631488C11.3544 0.63921 11.3938 0.64727 11.4331 0.65567C11.4723 0.66407 11.5115 0.672807 11.5507 0.681883C11.5898 0.690958 11.6288 0.700371 11.6678 0.710119C11.7068 0.719869 11.7456 0.729954 11.7844 0.740373C11.8232 0.750792 11.8619 0.761545 11.9005 0.772631C11.9392 0.783718 11.9777 0.795137 12.0161 0.806887C12.0545 0.818638 12.0928 0.830719 12.131 0.843129C12.1692 0.855541 12.2073 0.86828 12.2452 0.881348C12.2832 0.894415 12.3211 0.90781 12.3588 0.921531C12.3966 0.935253 12.4342 0.949298 12.4717 0.963668C12.5092 0.978037 12.5466 0.992728 12.5839 1.00774C12.6211 1.02276 12.6582 1.03809 12.6952 1.05375C12.7322 1.0694 12.7691 1.08537 12.8058 1.10166C12.8425 1.11795 12.8791 1.13456 12.9155 1.15148C12.9519 1.1684 12.9882 1.18563 13.0243 1.20318C13.0605 1.22072 13.0964 1.23858 13.1323 1.25674C13.1681 1.27491 13.2038 1.29338 13.2393 1.31217C13.2748 1.33095 13.3101 1.35003 13.3453 1.36942C13.3805 1.38881 13.4155 1.40851 13.4503 1.4285C13.4851 1.4485 13.5198 1.46879 13.5543 1.48938C13.5888 1.50997 13.6231 1.53086 13.6572 1.55205C13.6913 1.57323 13.7253 1.5947 13.759 1.61647C13.7928 1.63824 13.8264 1.6603 13.8597 1.68265C13.8931 1.70499 13.9263 1.72763 13.9593 1.75055C15.3978 2.74268 16.4807 4.33079 16.7953 6.05889C17.0287 7.34149 16.9197 8.58227 16.4526 9.80005C16.1582 10.5674 15.7152 11.1521 15.2586 11.823L13.9945 13.678L10.1742 19.298C10.1714 19.3018 10.1688 19.3056 10.1659 19.3092C10.1332 19.3512 10.0724 19.3962 10.0177 19.4012C9.96998 19.4057 9.92496 19.3838 9.88904 19.3541C9.7734 19.2582 9.41242 18.6845 9.29613 18.5166L7.0449 15.2091L4.84797 12.0123C4.5208 11.5303 4.11461 11.0107 3.85476 10.4965C3.82873 10.4454 3.80334 10.394 3.77857 10.3423C3.75381 10.2906 3.72968 10.2386 3.70619 10.1863C3.6827 10.134 3.65985 10.0814 3.63765 10.0285C3.61545 9.97566 3.5939 9.92253 3.573 9.86913C3.55212 9.81573 3.53189 9.76208 3.5123 9.70819C3.49273 9.6543 3.47382 9.60017 3.45556 9.54581C3.43731 9.49145 3.41973 9.43687 3.40283 9.38208C3.38592 9.3273 3.36968 9.27231 3.35412 9.21712C3.33856 9.16193 3.32368 9.10656 3.30947 9.051C3.29526 8.99546 3.28175 8.93974 3.26892 8.88386C3.25608 8.82797 3.24394 8.77194 3.23248 8.71575C3.22102 8.65956 3.21025 8.60325 3.20017 8.5468C3.19009 8.49035 3.18071 8.43378 3.17203 8.37712C3.16334 8.32044 3.15535 8.26366 3.14804 8.20679C3.14075 8.14991 3.13416 8.09296 3.12826 8.03593C3.12236 7.97888 3.11717 7.92178 3.11267 7.86462C3.10826 7.80916 3.10454 7.75366 3.1015 7.69811C3.09847 7.64257 3.09612 7.58699 3.09445 7.53138C3.09278 7.47578 3.09181 7.42016 3.09152 7.36452C3.09123 7.3089 3.09163 7.25327 3.09271 7.19764C3.09381 7.14202 3.09558 7.08642 3.09804 7.03085C3.10051 6.97528 3.10365 6.91974 3.10748 6.86425C3.11132 6.80874 3.11584 6.7533 3.12103 6.69792C3.12624 6.64253 3.13213 6.58721 3.13871 6.53196C3.14528 6.47673 3.15254 6.42158 3.16047 6.36651C3.16841 6.31145 3.17703 6.25649 3.18633 6.20165C3.19562 6.14679 3.20559 6.09207 3.21623 6.03747C3.22688 5.98286 3.2382 5.92839 3.25019 5.87407C3.2622 5.81976 3.27487 5.7656 3.2882 5.71159C3.30153 5.65758 3.31553 5.60374 3.33019 5.55007C3.34485 5.49641 3.36018 5.44294 3.37617 5.38966C3.39216 5.33638 3.40881 5.2833 3.42611 5.23042C3.4434 5.17754 3.46135 5.12489 3.47996 5.07247C3.49855 5.02003 3.5178 4.96784 3.53769 4.91589C3.55759 4.86393 3.57812 4.81223 3.59929 4.76079C3.62047 4.70934 3.64227 4.65817 3.6647 4.60725C3.68714 4.55636 3.7102 4.50574 3.73388 4.4554C3.75757 4.40506 3.78187 4.35503 3.80679 4.3053C3.83172 4.25556 3.85725 4.20614 3.8834 4.15704C3.90954 4.10794 3.93629 4.05916 3.96365 4.01071C3.99101 3.96227 4.01896 3.91417 4.0475 3.86641C4.07604 3.81867 4.10516 3.77128 4.13486 3.72425C4.16457 3.67721 4.19487 3.63056 4.22574 3.58429C4.25661 3.538 4.28804 3.4921 4.32004 3.44659C4.35204 3.40108 4.3846 3.35598 4.41771 3.31128C4.45084 3.26658 4.4845 3.22229 4.51871 3.17843C4.55291 3.13456 4.58766 3.09112 4.62295 3.04811C4.65823 3.00511 4.69405 2.96254 4.73039 2.92042C4.75948 2.886 4.7889 2.85188 4.81867 2.81805C4.84843 2.78423 4.87854 2.7507 4.90898 2.71749C4.93942 2.68426 4.97019 2.65134 5.00129 2.61874C5.03238 2.58612 5.0638 2.55382 5.09554 2.52184C5.12729 2.48986 5.15935 2.4582 5.19172 2.42686C5.22409 2.39552 5.25677 2.36451 5.28976 2.33382C5.32276 2.30313 5.35606 2.27277 5.38967 2.24276C5.42326 2.21274 5.45716 2.18305 5.49136 2.1537C5.52556 2.12436 5.56004 2.09537 5.5948 2.06671C5.62958 2.03805 5.66464 2.00974 5.69998 1.98179C5.73532 1.95383 5.77094 1.92624 5.80683 1.899C5.84272 1.87175 5.87888 1.84487 5.91531 1.81835C5.95174 1.79183 5.98843 1.76568 6.02537 1.73989C6.06232 1.7141 6.09953 1.68869 6.13699 1.66365C6.17445 1.6386 6.21216 1.61394 6.25011 1.58965C6.28807 1.56536 6.32626 1.54145 6.36468 1.51792C6.40311 1.4944 6.44177 1.47126 6.48066 1.44851C6.51955 1.42575 6.55868 1.40339 6.59803 1.38142C6.63736 1.35945 6.67691 1.33787 6.71668 1.31669C6.75646 1.29551 6.79644 1.27473 6.83662 1.25434C6.8768 1.23396 6.91719 1.21398 6.95777 1.19441C6.99836 1.17483 7.03914 1.15567 7.08011 1.13691C7.12108 1.11815 7.16223 1.0998 7.20357 1.08186C7.2449 1.06392 7.28641 1.0464 7.3281 1.02929C7.36978 1.01218 7.41163 0.995494 7.45365 0.979223C7.49567 0.962952 7.53784 0.947102 7.58017 0.931674C7.62252 0.916246 7.665 0.901242 7.70763 0.886662C7.75028 0.872083 7.79306 0.857931 7.83597 0.844207C7.87889 0.830483 7.92194 0.817189 7.96513 0.804324C8.00831 0.791461 8.05162 0.77903 8.09506 0.767031C8.13848 0.755034 8.18203 0.743471 8.2257 0.732342C8.26936 0.721214 8.31313 0.710524 8.35701 0.700272C8.80883 0.594238 9.26656 0.538318 9.72851 0.502041ZM9.66371 0.845527C9.28131 0.879416 8.90705 0.91761 8.53117 1.00037C8.48756 1.01014 8.44406 1.02036 8.40066 1.03102C8.35726 1.04168 8.31398 1.05278 8.2708 1.06433C8.22762 1.07588 8.18458 1.08786 8.14166 1.10029C8.09873 1.11272 8.05593 1.12558 8.01326 1.13889C7.9706 1.15219 7.92808 1.16593 7.8857 1.1801C7.84332 1.19427 7.80108 1.20888 7.75898 1.22391C7.7169 1.23895 7.67498 1.25442 7.63322 1.27031C7.59145 1.2862 7.54985 1.30252 7.50842 1.31927C7.46697 1.33601 7.42571 1.35318 7.38463 1.37077C7.34355 1.38836 7.30265 1.40637 7.26193 1.42479C7.22122 1.44322 7.18069 1.46206 7.14037 1.48132C7.10004 1.50057 7.05991 1.52024 7.01998 1.54031C6.98006 1.56039 6.94034 1.58087 6.90084 1.60176C6.86133 1.62265 6.82204 1.64394 6.78297 1.66563C6.74389 1.68732 6.70504 1.70941 6.66642 1.7319C6.6278 1.75438 6.58942 1.77726 6.55127 1.80054C6.51312 1.82381 6.47521 1.84747 6.43754 1.87151C6.39987 1.89556 6.36245 1.91999 6.32527 1.9448C6.28811 1.96961 6.2512 1.99481 6.21455 2.02038C6.17789 2.04595 6.14151 2.07189 6.10539 2.09819C6.06927 2.12451 6.03342 2.15119 5.99783 2.17823C5.96226 2.20527 5.92696 2.23268 5.89195 2.26046C5.85692 2.28823 5.82219 2.31636 5.78775 2.34483C5.75331 2.37331 5.71916 2.40214 5.68531 2.43132C5.65147 2.46048 5.61792 2.49 5.58467 2.51987C5.55142 2.54973 5.51849 2.57993 5.48586 2.61048C5.45323 2.64101 5.42092 2.67188 5.38892 2.70307C5.35692 2.73427 5.32524 2.7658 5.29388 2.79764C5.26253 2.82948 5.23151 2.86164 5.20082 2.89413C5.17013 2.9266 5.13977 2.9594 5.10974 2.99251C5.07972 3.02561 5.05003 3.05901 5.02068 3.09272C4.99134 3.12643 4.96235 3.16044 4.93371 3.19473C4.89972 3.23549 4.86625 3.27666 4.83328 3.31823C4.8003 3.35981 4.76783 3.40177 4.73588 3.44413C4.70394 3.4865 4.67251 3.52925 4.6416 3.57239C4.61069 3.61552 4.58031 3.65902 4.55047 3.7029C4.52062 3.74677 4.49132 3.791 4.46256 3.83559C4.43379 3.88018 4.40558 3.92511 4.37791 3.9704C4.35024 4.01567 4.32313 4.06128 4.29658 4.10721C4.27002 4.15317 4.24403 4.19943 4.21861 4.246C4.19318 4.29258 4.16832 4.33945 4.14404 4.38663C4.11977 4.43382 4.09607 4.48129 4.07295 4.52905C4.04982 4.57681 4.02729 4.62485 4.00535 4.67315C3.9834 4.72147 3.96204 4.77005 3.94127 4.81888C3.92051 4.8677 3.90035 4.91678 3.88078 4.9661C3.86122 5.01544 3.84226 5.06499 3.8239 5.11477C3.80556 5.16457 3.78782 5.21457 3.77068 5.26479C3.75355 5.31501 3.73703 5.36544 3.72113 5.41606C3.70522 5.46669 3.68993 5.5175 3.67527 5.56848C3.66061 5.61949 3.64657 5.67066 3.63316 5.722C3.61975 5.77334 3.60697 5.82484 3.59482 5.87649C3.58266 5.92813 3.57114 5.97992 3.56025 6.03186C3.54935 6.08379 3.5391 6.13585 3.52949 6.18804C3.51987 6.24022 3.51088 6.29252 3.50254 6.34493C3.4942 6.39733 3.4865 6.44982 3.47943 6.50241C3.47237 6.555 3.46595 6.60767 3.46017 6.66042C3.4544 6.71317 3.44927 6.76598 3.44478 6.81886C3.4403 6.87172 3.43647 6.92464 3.43328 6.97761C3.43008 7.03057 3.42753 7.08358 3.42564 7.13661C3.42374 7.18963 3.42248 7.24267 3.42187 7.29573C3.42127 7.34879 3.42132 7.40185 3.42201 7.45491C3.4227 7.50797 3.42404 7.56102 3.42603 7.61405C3.42801 7.66707 3.43064 7.72006 3.43392 7.77302C3.4372 7.82598 3.44113 7.8789 3.4457 7.93177C3.45562 8.03617 3.468 8.14028 3.48283 8.24409C3.49767 8.34789 3.51496 8.45129 3.53468 8.55429C3.55442 8.65728 3.57658 8.75975 3.60115 8.86171C3.62573 8.96365 3.65271 9.06496 3.68209 9.16563C3.71145 9.26631 3.74318 9.36623 3.77728 9.4654C3.81138 9.56457 3.8478 9.66287 3.88654 9.76032C3.92529 9.85777 3.96632 9.95425 4.00963 10.0498C4.05295 10.1453 4.09849 10.2397 4.14627 10.333C4.35623 10.7523 4.6306 11.1215 4.89828 11.5045L5.6824 12.642C6.67495 14.0734 7.65908 15.5107 8.63478 16.9536L9.48385 18.201C9.6559 18.4522 9.84138 18.7016 9.99668 18.9632C10.0476 18.8916 10.0973 18.8192 10.1457 18.7459L13.9389 13.172L14.9184 11.7319C15.4145 11.0141 15.8464 10.4629 16.165 9.63108C16.1783 9.59698 16.1914 9.56277 16.2041 9.52845C16.2169 9.49411 16.2293 9.45967 16.2414 9.42513C16.2536 9.39058 16.2654 9.35593 16.2769 9.32116C16.2885 9.28641 16.2997 9.25156 16.3106 9.21661C16.3215 9.18166 16.3321 9.14662 16.3424 9.11147C16.3527 9.07634 16.3627 9.04112 16.3724 9.00581C16.3821 8.9705 16.3915 8.9351 16.4005 8.89962C16.4096 8.86414 16.4184 8.82858 16.4268 8.79296C16.4352 8.75732 16.4434 8.72162 16.4512 8.68585C16.459 8.65008 16.4665 8.61424 16.4737 8.57833C16.4809 8.54243 16.4878 8.50647 16.4943 8.47044C16.5009 8.43441 16.5071 8.39833 16.513 8.3622C16.519 8.32606 16.5246 8.28988 16.5299 8.25364C16.5351 8.21742 16.5401 8.18114 16.5448 8.14481C16.5494 8.1085 16.5538 8.07214 16.5578 8.03575C16.5618 7.99936 16.5655 7.96292 16.5689 7.92645C16.5723 7.89 16.5753 7.85351 16.5781 7.817C16.5808 7.78049 16.5832 7.74395 16.5853 7.70739C16.5874 7.67084 16.5892 7.63427 16.5907 7.59768C16.5921 7.5611 16.5933 7.52449 16.5941 7.48788C16.5949 7.45128 16.5954 7.41467 16.5956 7.37806C16.5957 7.34143 16.5956 7.30481 16.5951 7.26819C16.5947 7.23158 16.5939 7.19498 16.5928 7.15839C16.5917 7.12179 16.5902 7.0852 16.5885 7.04862C16.5867 7.01205 16.5847 6.97549 16.5823 6.93895C16.5799 6.9024 16.5772 6.86589 16.5741 6.8294C16.5711 6.79291 16.5678 6.75644 16.5641 6.72001C16.5604 6.68358 16.5564 6.64718 16.5521 6.61083C16.5478 6.57446 16.5432 6.53814 16.5382 6.50186C16.5333 6.46557 16.528 6.42934 16.5225 6.39315C16.5169 6.35695 16.511 6.32082 16.5048 6.28473C16.4986 6.24865 16.492 6.21263 16.4852 6.17665C16.4754 6.12497 16.465 6.07341 16.454 6.02198C16.443 5.97056 16.4313 5.91928 16.4191 5.86813C16.4068 5.81699 16.3939 5.766 16.3804 5.71516C16.3669 5.66433 16.3528 5.61367 16.338 5.56319C16.3233 5.51271 16.3079 5.46241 16.292 5.41229C16.276 5.36218 16.2594 5.31227 16.2423 5.26257C16.2251 5.21285 16.2073 5.16335 16.1889 5.11407C16.1705 5.0648 16.1516 5.01576 16.132 4.96694C16.1124 4.91813 16.0923 4.86955 16.0715 4.82122C16.0507 4.7729 16.0294 4.72483 16.0075 4.67702C15.9855 4.62922 15.963 4.58169 15.9399 4.53442C15.9169 4.48717 15.8932 4.4402 15.869 4.39352C15.8448 4.34683 15.82 4.30045 15.7946 4.25438C15.7693 4.2083 15.7434 4.16253 15.7169 4.11708C15.6904 4.07162 15.6634 4.0265 15.6358 3.98171C15.6083 3.93692 15.5802 3.89247 15.5515 3.84837C15.5229 3.80425 15.4937 3.7605 15.464 3.7171C15.4343 3.6737 15.404 3.63067 15.3733 3.58802C15.3425 3.54535 15.3113 3.50306 15.2795 3.46116C15.2477 3.41926 15.2154 3.37775 15.1826 3.33663C15.1498 3.29551 15.1165 3.2548 15.0827 3.2145C15.0489 3.17419 15.0147 3.1343 14.9799 3.09483C14.9451 3.05535 14.9099 3.01631 14.8742 2.9777C14.8385 2.93908 14.8023 2.90091 14.7657 2.86317C14.7291 2.82544 14.692 2.78815 14.6544 2.75132C14.6169 2.71448 14.5789 2.67811 14.5405 2.6422C14.502 2.60628 14.4632 2.57085 14.4239 2.53589C14.3846 2.50093 14.3449 2.46645 14.3048 2.43245C14.2646 2.39845 14.2241 2.36494 14.1831 2.33192C14.1422 2.29891 14.1009 2.26641 14.0591 2.2344C14.0174 2.2024 13.9753 2.17091 13.9328 2.13993C13.8903 2.10894 13.8474 2.07848 13.8042 2.04854C12.7722 1.34708 11.5827 0.912941 10.3332 0.848502C10.1141 0.837203 9.88232 0.825598 9.66371 0.845527Z" fill="black"/>
<path d="M9.95239 1.50806C10.4285 1.49739 10.9289 1.56054 11.3899 1.67766C12.9422 2.07205 14.265 3.02797 15.0841 4.41014C15.8456 5.69522 16.0937 7.30942 15.7205 8.7595C15.601 9.22381 15.4388 9.66506 15.1977 10.0805C14.9329 10.5369 14.6155 10.9669 14.3173 11.4021L12.8991 13.4723L11.0108 16.2264C10.7359 16.6227 10.4695 17.0325 10.1793 17.4173C10.1449 17.4629 10.1148 17.4945 10.0649 17.5239C10.0077 17.5373 9.96848 17.5291 9.91254 17.5153C9.90719 17.5108 9.90194 17.5063 9.89678 17.5016C9.80495 17.4176 9.73416 17.2883 9.6636 17.1857L9.29108 16.6425C8.82491 15.979 8.36374 15.3121 7.90758 14.6418L5.93516 11.7945L5.4368 11.0682C5.16659 10.6805 4.88832 10.2942 4.68426 9.86627C4.6627 9.82088 4.64172 9.77522 4.62133 9.7293C4.60095 9.68338 4.58117 9.63719 4.56198 9.59075C4.5428 9.5443 4.52422 9.49761 4.50623 9.45069C4.48825 9.40377 4.47088 9.35663 4.45413 9.30926C4.43737 9.26188 4.42123 9.21429 4.40571 9.16651C4.39019 9.11872 4.37528 9.07074 4.361 9.02256C4.34672 8.97439 4.33306 8.92603 4.32002 8.8775C4.307 8.82896 4.29461 8.78027 4.28284 8.73143C4.27107 8.68258 4.25993 8.63358 4.24944 8.58444C4.23893 8.5353 4.22907 8.48603 4.21985 8.43662C4.21063 8.38724 4.20205 8.33773 4.19411 8.28811C4.18616 8.2385 4.17886 8.18879 4.17221 8.13897C4.16556 8.08916 4.15955 8.03928 4.15418 7.98932C4.14882 7.93936 4.14411 7.88934 4.14004 7.83926C4.13598 7.78917 4.13256 7.73904 4.12979 7.68887C4.12703 7.63869 4.12491 7.58849 4.12344 7.53827C4.12178 7.49066 4.12069 7.44305 4.1202 7.39543C4.11969 7.3478 4.11978 7.30018 4.12045 7.25256C4.12113 7.20494 4.12239 7.15734 4.12422 7.10975C4.12607 7.06216 4.1285 7.01459 4.13151 6.96705C4.13453 6.91953 4.13813 6.87204 4.14231 6.82459C4.14649 6.77716 4.15125 6.72978 4.15659 6.68245C4.16194 6.63513 4.16787 6.58787 4.17438 6.54069C4.18088 6.49351 4.18796 6.44642 4.19563 6.39942C4.2033 6.35241 4.21154 6.3055 4.22036 6.25869C4.22917 6.2119 4.23856 6.16521 4.24852 6.11864C4.25849 6.07206 4.26903 6.02562 4.28014 5.9793C4.29125 5.933 4.30292 5.88683 4.31516 5.8408C4.3274 5.79478 4.34021 5.7489 4.35358 5.70319C4.36695 5.65748 4.38088 5.61194 4.39538 5.56657C4.40985 5.5212 4.42489 5.47602 4.44049 5.43102C4.45609 5.38602 4.47224 5.34122 4.48895 5.29662C4.50566 5.25202 4.5229 5.20762 4.54069 5.16344C4.55849 5.11927 4.57682 5.07532 4.59569 5.03159C4.61457 4.98786 4.63398 4.94437 4.65391 4.90112C4.67386 4.85787 4.69433 4.81488 4.71534 4.77213C4.73633 4.72938 4.75784 4.6869 4.77989 4.64469C4.80193 4.60246 4.8245 4.56052 4.84758 4.51887C4.87066 4.4772 4.89424 4.43583 4.91832 4.39475C4.94241 4.35366 4.96701 4.31287 4.99211 4.27241C5.0172 4.23192 5.04279 4.19175 5.06887 4.1519C5.09495 4.11205 5.12152 4.07254 5.14858 4.03334C5.17562 3.99414 5.20316 3.95528 5.23118 3.91676C5.25918 3.87825 5.28766 3.84008 5.31661 3.80225C5.34555 3.76444 5.37496 3.72698 5.40483 3.68989C5.4347 3.65279 5.46502 3.61606 5.49579 3.57971C5.52655 3.54336 5.55776 3.50739 5.58942 3.4718C5.62107 3.43621 5.65316 3.40103 5.68569 3.36623C6.82018 2.14459 8.30471 1.56646 9.95239 1.50806ZM9.85319 1.84011C9.37528 1.87235 8.90741 1.93571 8.44454 2.06391C8.4123 2.0731 8.38015 2.08258 8.34809 2.09235C8.31602 2.10211 8.28405 2.11217 8.25217 2.12252C8.22028 2.13287 8.1885 2.14351 8.15682 2.15444C8.12513 2.16536 8.09354 2.17657 8.06206 2.18807C8.03057 2.19957 7.99919 2.21135 7.96791 2.22342C7.93665 2.23549 7.90549 2.24784 7.87444 2.26047C7.8434 2.2731 7.81246 2.28601 7.78164 2.2992C7.75084 2.31239 7.72015 2.32586 7.68957 2.33961C7.659 2.35336 7.62856 2.36739 7.59825 2.38168C7.56793 2.39598 7.53775 2.41056 7.5077 2.42541C7.47765 2.44026 7.44773 2.45537 7.41795 2.47077C7.38817 2.48614 7.35854 2.50179 7.32905 2.51772C7.29955 2.53366 7.27021 2.54985 7.241 2.56629C7.21179 2.58275 7.18275 2.59948 7.15385 2.61647C7.12496 2.63345 7.09622 2.65069 7.06762 2.66819C7.03904 2.6857 7.01062 2.70347 6.98235 2.72149C6.95409 2.7395 6.926 2.75776 6.89807 2.77629C6.87013 2.79482 6.84236 2.8136 6.81477 2.83264C6.78718 2.85168 6.75976 2.87095 6.73252 2.89047C6.70528 2.91 6.67822 2.92978 6.65133 2.94981C6.62444 2.96982 6.59774 2.99008 6.57123 3.01059C6.54471 3.03108 6.51838 3.05183 6.49225 3.07282C6.4661 3.09379 6.44015 3.115 6.4144 3.13645C6.38864 3.15789 6.36308 3.17957 6.33772 3.20149C6.31235 3.2234 6.28719 3.24554 6.26221 3.26791C6.23725 3.29028 6.2125 3.31288 6.18795 3.33571C6.1634 3.35852 6.13905 3.38155 6.11491 3.40481C6.09078 3.42806 6.06685 3.45154 6.04313 3.47524C6.01943 3.49894 5.99594 3.52284 5.97266 3.54696C5.94938 3.57107 5.92632 3.59539 5.90348 3.61993C5.88064 3.64447 5.85803 3.66922 5.83565 3.69416C5.81325 3.7191 5.79109 3.74424 5.76916 3.76959C4.83903 4.83608 4.36145 6.31412 4.45809 7.72409C4.46412 7.81208 4.47224 7.89988 4.48247 7.98748C4.49269 8.0751 4.505 8.16241 4.5194 8.24942C4.5338 8.33644 4.55028 8.42306 4.56883 8.5093C4.58737 8.59552 4.60797 8.68126 4.63063 8.76651C4.65327 8.85175 4.67795 8.93641 4.70465 9.02047C4.73135 9.10453 4.76004 9.18791 4.79073 9.27061C4.82142 9.35329 4.85407 9.4352 4.88868 9.51633C4.92329 9.59746 4.95982 9.67772 4.99827 9.75709C5.26588 10.3048 5.64475 10.7942 5.99137 11.2933L7.37981 13.3006L9.13008 15.8284L9.70219 16.6566C9.80053 16.7984 9.89499 16.9463 10.0015 17.0818L10.0852 16.9678C10.4135 16.541 10.7079 16.0809 11.0125 15.6366L12.5348 13.4207L13.9955 11.2916C14.4398 10.6413 14.939 9.99346 15.2228 9.25282C15.5419 8.42006 15.6272 7.5011 15.5119 6.61979C15.5058 6.57544 15.4992 6.53117 15.492 6.48698C15.4848 6.44278 15.4771 6.39868 15.4688 6.35467C15.4606 6.31067 15.4518 6.26678 15.4425 6.22299C15.4331 6.17922 15.4233 6.13555 15.4129 6.092C15.4025 6.04845 15.3915 6.00504 15.3801 5.96176C15.3686 5.91849 15.3566 5.87537 15.3441 5.83239C15.3316 5.7894 15.3185 5.74658 15.3049 5.70391C15.2914 5.66125 15.2773 5.61877 15.2627 5.57645C15.2481 5.53413 15.2329 5.492 15.2173 5.45006C15.2016 5.40811 15.1855 5.36636 15.1688 5.32483C15.1521 5.28328 15.1349 5.24194 15.1173 5.2008C15.0996 5.15968 15.0814 5.11878 15.0627 5.07809C15.044 5.03741 15.0248 4.99697 15.0051 4.95676C14.9854 4.91655 14.9653 4.87659 14.9446 4.83686C14.9239 4.79715 14.9028 4.75769 14.8812 4.7185C14.8595 4.67931 14.8374 4.64038 14.8148 4.60172C14.7923 4.56306 14.7692 4.52469 14.7457 4.4866C14.7221 4.44852 14.6981 4.41073 14.6737 4.37323C14.6492 4.33573 14.6243 4.29853 14.599 4.26164C14.5736 4.22476 14.5478 4.18818 14.5215 4.15192C14.4952 4.11567 14.4685 4.07974 14.4414 4.04414C14.4143 4.00855 14.3867 3.97328 14.3587 3.93836C14.3306 3.90343 14.3022 3.86885 14.2734 3.83463C14.2445 3.8004 14.2152 3.76653 14.1855 3.73303C14.1558 3.69952 14.1258 3.66637 14.0953 3.6336C14.0647 3.60084 14.0339 3.56845 14.0026 3.53643C13.9713 3.50442 13.9396 3.4728 13.9075 3.44157C13.8754 3.41033 13.843 3.37949 13.8101 3.34905C13.7773 3.3186 13.7441 3.28857 13.7106 3.25895C13.677 3.22933 13.6431 3.20012 13.6088 3.17133C13.5745 3.14254 13.5399 3.11418 13.5049 3.08623C13.4699 3.05828 13.4346 3.03077 13.3989 3.00369C13.3467 2.96351 13.2938 2.92425 13.2402 2.88592C13.1865 2.8476 13.1323 2.81023 13.0773 2.77381C13.0224 2.73739 12.9668 2.70195 12.9107 2.66748C12.8545 2.63302 12.7977 2.59955 12.7404 2.56707C12.683 2.5346 12.6251 2.50315 12.5666 2.47272C12.5082 2.44228 12.4492 2.41287 12.3897 2.38452C12.3302 2.35614 12.2702 2.32883 12.2098 2.30258C12.1493 2.27632 12.0884 2.25113 12.0271 2.22702C11.9658 2.2029 11.904 2.17987 11.8419 2.15793C11.7797 2.13598 11.7172 2.11513 11.6543 2.09537C11.5914 2.07563 11.5282 2.057 11.4647 2.03946C11.4012 2.02193 11.3373 2.00552 11.2732 1.99024C11.2091 1.97495 11.1448 1.9608 11.0801 1.94778C11.0155 1.93476 10.9507 1.92287 10.8857 1.91213C10.8207 1.90138 10.7555 1.89178 10.6901 1.88333C10.6247 1.87487 10.5592 1.86757 10.4936 1.86142C10.2826 1.84183 10.065 1.82339 9.85319 1.84011Z" fill="black"/>
</svg>
