<svg width="40" height="40" viewBox="0 0 40 40" fill="none" xmlns="http://www.w3.org/2000/svg">
<path d="M11.0866 2.37126C11.0942 2.37032 11.1018 2.36902 11.1094 2.36841C11.7816 2.31436 12.5936 2.39676 13.2578 2.50461C13.3828 2.52528 13.5074 2.54786 13.6317 2.57236C13.7559 2.59686 13.8798 2.62325 14.0033 2.65155C14.1267 2.67985 14.2497 2.71004 14.3723 2.74212C14.4948 2.77419 14.6168 2.80814 14.7383 2.84396C14.8598 2.87978 14.9807 2.91746 15.101 2.957C15.2214 2.99653 15.3411 3.0379 15.4601 3.08111C15.5792 3.12432 15.6976 3.16935 15.8153 3.21619C15.9329 3.26303 16.0499 3.31167 16.1661 3.3621C16.2823 3.41254 16.3976 3.46474 16.5122 3.51872C16.6268 3.57269 16.7406 3.62842 16.8534 3.68589C16.9663 3.74335 17.0783 3.80254 17.1893 3.86344C17.3004 3.92435 17.4105 3.98695 17.5196 4.05124C17.6288 4.11552 17.7369 4.18145 17.844 4.24906C17.9511 4.31666 18.0572 4.38589 18.1621 4.45675C18.2671 4.52764 18.371 4.6001 18.4738 4.67414C18.5765 4.7482 18.6781 4.82381 18.7786 4.90097C19.2022 5.22101 19.5981 5.57691 19.9987 5.92492C20.2159 5.73466 20.4347 5.5461 20.6549 5.35925C23.0399 3.36584 26.0567 2.12764 29.2009 2.41444C32.2136 2.68923 34.8267 4.06371 36.7634 6.39136C38.6796 8.69441 39.5598 11.7761 39.2805 14.7449C39.268 14.8699 39.2538 14.9947 39.2379 15.1194C39.222 15.2441 39.2044 15.3685 39.1851 15.4927C39.1661 15.6169 39.1454 15.7408 39.123 15.8645C39.1006 15.9882 39.0766 16.1115 39.051 16.2345C39.0254 16.3575 38.9982 16.4802 38.9694 16.6026C38.9406 16.7249 38.9102 16.8468 38.8782 16.9683C38.8462 17.0899 38.8126 17.2109 38.7775 17.3316C38.7423 17.4522 38.7056 17.5724 38.6673 17.6921C38.629 17.8118 38.5892 17.931 38.5478 18.0496C38.5064 18.1683 38.4634 18.2864 38.4189 18.4039C38.3745 18.5214 38.3284 18.6384 38.2809 18.7547C38.2333 18.871 38.1843 18.9867 38.1337 19.1017C38.0831 19.2168 38.0311 19.3311 37.9775 19.4448C37.924 19.5585 37.8689 19.6715 37.8124 19.7837C37.7559 19.8959 37.698 20.0074 37.6385 20.1182C37.5791 20.2289 37.5183 20.3388 37.456 20.448C36.9103 21.4114 36.2469 22.3084 35.5489 23.166C32.9185 26.3982 29.6444 29.0185 26.4513 31.6651C25.4068 32.5324 24.3738 33.4133 23.3524 34.3077C22.155 35.3678 20.9966 36.455 19.9904 37.7028C19.6389 37.2708 19.2894 36.8423 18.9082 36.4355C17.6714 35.1153 16.2808 33.9818 14.9052 32.8144L10.2286 28.8711C9.00766 27.8418 7.83261 26.7626 6.70347 25.6334C3.72267 22.6478 1.07512 19.1877 0.709479 14.8323C0.442736 11.655 1.2167 8.69417 3.29926 6.23718C3.3457 6.18205 3.39268 6.1274 3.44019 6.07324C3.48771 6.01904 3.53576 5.96532 3.58434 5.91207C3.63293 5.85884 3.68203 5.80609 3.73165 5.75382C3.78128 5.70156 3.83142 5.64979 3.88207 5.59851C3.93272 5.54724 3.98387 5.49647 4.03554 5.44621C4.0872 5.39595 4.13935 5.34621 4.19198 5.29699C4.24464 5.24777 4.29776 5.19907 4.35136 5.15089C4.40498 5.10272 4.45905 5.05507 4.51358 5.00796C4.56814 4.96085 4.62315 4.91429 4.67862 4.86828C4.73409 4.82226 4.79002 4.7768 4.8464 4.73191C4.90278 4.68701 4.95959 4.64266 5.01683 4.59886C5.07409 4.55509 5.13177 4.51188 5.18987 4.46925C5.24797 4.4266 5.30649 4.38454 5.36542 4.34308C5.42438 4.3016 5.48373 4.2607 5.54347 4.22039C5.60323 4.18007 5.66338 4.14036 5.7239 4.10124C5.78444 4.06213 5.84537 4.02363 5.90667 3.98574C5.96795 3.94782 6.02961 3.91052 6.09167 3.87384C6.1537 3.83716 6.2161 3.80109 6.27886 3.76564C6.34159 3.73019 6.40468 3.69536 6.46811 3.66116C6.53158 3.62696 6.59535 3.59339 6.65944 3.56046C6.72356 3.52752 6.78798 3.49522 6.85272 3.46356C6.91746 3.4319 6.98252 3.40088 7.04788 3.37051C7.11325 3.34013 7.17891 3.31041 7.24487 3.28133C7.31081 3.25226 7.37703 3.22385 7.44354 3.19608C7.51005 3.16832 7.57684 3.14123 7.6439 3.11479C7.71093 3.08835 7.77823 3.06258 7.84581 3.03747C7.91336 3.01236 7.98116 2.98793 8.04921 2.96417C8.11726 2.94041 8.18552 2.91732 8.25401 2.89491C8.3225 2.8725 8.39121 2.85077 8.46015 2.82972C8.52908 2.80867 8.59822 2.7883 8.66757 2.76862C8.73689 2.74894 8.80641 2.72995 8.87612 2.71165C8.94584 2.69334 9.01572 2.67573 9.08577 2.65881C9.7437 2.50458 10.4143 2.42739 11.0866 2.37126ZM11.2011 3.03585C10.6409 3.07089 10.0879 3.12118 9.5369 3.23126C9.4699 3.24492 9.40305 3.25926 9.33636 3.27428C9.26964 3.28929 9.20309 3.30498 9.13671 3.32135C9.0703 3.33772 9.00408 3.35476 8.93804 3.37247C8.87199 3.39018 8.80614 3.40855 8.74046 3.4276C8.67478 3.44664 8.60931 3.46635 8.54405 3.48673C8.47877 3.5071 8.4137 3.52813 8.34886 3.54982C8.28401 3.57151 8.21939 3.59386 8.15499 3.61686C8.09062 3.63986 8.02647 3.66352 7.96257 3.68782C7.89864 3.71212 7.83496 3.73707 7.77155 3.76266C7.70817 3.78826 7.64503 3.81449 7.58214 3.84137C7.51927 3.86824 7.45668 3.89575 7.39437 3.9239C7.33205 3.95203 7.27002 3.98079 7.20827 4.01019C7.14653 4.03959 7.08509 4.06962 7.02397 4.10027C6.96285 4.13092 6.90205 4.16218 6.84155 4.19406C6.78106 4.22596 6.7209 4.25846 6.66108 4.29156C6.60124 4.32466 6.54175 4.35835 6.48261 4.39265C6.42344 4.42695 6.36464 4.46184 6.3062 4.49734C6.24776 4.53286 6.18969 4.56895 6.13198 4.60562C6.07427 4.64229 6.01694 4.67954 5.95999 4.71738C5.90304 4.75522 5.84647 4.79363 5.7903 4.83261C5.73413 4.8716 5.67835 4.91115 5.62296 4.95128C5.56759 4.99139 5.51263 5.03207 5.45808 5.07332C5.40355 5.11454 5.34942 5.15631 5.29569 5.19863C5.242 5.24097 5.18874 5.28385 5.13593 5.32726C5.08309 5.37065 5.03069 5.41458 4.97874 5.45906C4.92681 5.50354 4.87533 5.54854 4.82429 5.59406C4.77327 5.63955 4.72271 5.68558 4.67261 5.73214C4.6225 5.77868 4.57288 5.82571 4.52374 5.87324C4.4746 5.92079 4.42595 5.96884 4.3778 6.01738C4.32963 6.06592 4.28196 6.11493 4.2348 6.16441C4.18761 6.21391 4.14093 6.26389 4.09476 6.31433C4.04861 6.36477 4.00297 6.41569 3.95784 6.46707C3.90017 6.53222 3.8433 6.59807 3.78724 6.6646C3.73118 6.73114 3.67594 6.79837 3.62153 6.86628C3.56712 6.93417 3.51354 7.00273 3.46081 7.07195C3.40808 7.14114 3.3562 7.21099 3.30518 7.28148C3.25416 7.35195 3.20401 7.42304 3.15474 7.49476C3.10546 7.56648 3.05707 7.63878 3.00956 7.71167C2.96206 7.78457 2.91545 7.85804 2.86975 7.9321C2.82405 8.00614 2.77926 8.08072 2.73538 8.15585C2.69151 8.23098 2.64856 8.30665 2.60654 8.38285C2.56452 8.45904 2.52344 8.53574 2.48329 8.61292C2.44315 8.69014 2.40397 8.76782 2.36573 8.84597C2.32749 8.92412 2.29022 9.00274 2.25391 9.08183C2.2176 9.16089 2.18227 9.2404 2.1479 9.32035C2.11354 9.40027 2.08017 9.48061 2.04778 9.56136C2.01539 9.64214 1.98399 9.72329 1.95359 9.8048C1.92319 9.88634 1.89379 9.96822 1.8654 10.0505C1.837 10.1327 1.80962 10.2153 1.78325 10.2982C1.75688 10.3811 1.73153 10.4644 1.7072 10.5479C1.68287 10.6314 1.65957 10.7153 1.63729 10.7994C1.61502 10.8835 1.59377 10.9679 1.57357 11.0525C1.55336 11.1371 1.53419 11.222 1.51607 11.3071C1.49794 11.3922 1.48086 11.4775 1.46483 11.563C1.44879 11.6486 1.4338 11.7343 1.41987 11.8202C1.40593 11.906 1.39305 11.9921 1.38123 12.0783C1.3694 12.1645 1.35864 12.2508 1.34893 12.3373C1.33922 12.4238 1.33057 12.5103 1.32299 12.597C1.3154 12.6837 1.30887 12.7704 1.30342 12.8573C1.29795 12.9441 1.29356 13.031 1.29023 13.118C1.2869 13.2049 1.28464 13.2919 1.28344 13.3789C1.28224 13.4659 1.28211 13.5529 1.28304 13.6399C1.28398 13.7269 1.28598 13.8139 1.28904 13.9009C1.29211 13.9878 1.29625 14.0747 1.30144 14.1616C1.68898 20.1615 6.03089 24.3841 10.2889 28.113C12.1024 29.6731 13.9306 31.2156 15.7735 32.7408C16.6456 33.4646 17.4958 34.2133 18.3241 34.9869C18.8981 35.5224 19.475 36.0753 19.9845 36.6735C20.29 36.3707 20.5719 36.0455 20.8735 35.739C21.2995 35.306 21.7481 34.8904 22.195 34.4791C23.6126 33.1746 25.1098 31.9702 26.5744 30.7213C30.0958 27.7657 34.4872 24.2684 36.7973 20.263C36.8604 20.1549 36.922 20.0459 36.9821 19.9361C37.0423 19.8264 37.101 19.7158 37.1582 19.6044C37.2153 19.4931 37.271 19.3809 37.3251 19.2681C37.3793 19.1552 37.4319 19.0417 37.483 18.9274C37.5341 18.8131 37.5836 18.6982 37.6316 18.5825C37.6796 18.4669 37.726 18.3507 37.7709 18.2338C37.8157 18.1169 37.8589 17.9994 37.9006 17.8814C37.9423 17.7634 37.9823 17.6448 38.0208 17.5257C38.0593 17.4065 38.0961 17.2869 38.1314 17.1668C38.1666 17.0467 38.2002 16.9261 38.2322 16.8051C38.2642 16.6841 38.2945 16.5626 38.3232 16.4408C38.3519 16.3189 38.379 16.1967 38.4044 16.0741C38.4298 15.9516 38.4535 15.8287 38.4756 15.7054C38.4977 15.5822 38.5181 15.4587 38.5369 15.335C38.5556 15.2112 38.5727 15.0872 38.5881 14.963C38.6035 14.8387 38.6172 14.7143 38.6292 14.5897C38.6377 14.5019 38.6451 14.414 38.6514 14.326C38.6577 14.238 38.6629 14.1499 38.6669 14.0618C38.6711 13.9737 38.6741 13.8855 38.676 13.7973C38.6779 13.7091 38.6788 13.6209 38.6785 13.5327C38.6782 13.4444 38.6769 13.3562 38.6744 13.268C38.672 13.1799 38.6685 13.0917 38.6638 13.0036C38.6592 12.9155 38.6535 12.8275 38.6467 12.7395C38.6398 12.6516 38.6319 12.5637 38.623 12.4759C38.614 12.3881 38.6039 12.3005 38.5928 12.213C38.5816 12.1255 38.5694 12.0381 38.556 11.9509C38.5427 11.8637 38.5284 11.7766 38.5129 11.6898C38.4974 11.603 38.4809 11.5163 38.4632 11.4298C38.4456 11.3434 38.4269 11.2572 38.4072 11.1712C38.3874 11.0852 38.3666 10.9995 38.3448 10.914C38.3229 10.8285 38.2999 10.7434 38.276 10.6585C38.252 10.5735 38.2269 10.489 38.2009 10.4047C38.1748 10.3204 38.1477 10.2365 38.1195 10.1528C38.0913 10.0692 38.0621 9.98597 38.0319 9.90308C38.0017 9.82022 37.9705 9.73772 37.9382 9.65558C37.906 9.57347 37.8727 9.49178 37.8384 9.4105C37.8041 9.3292 37.7688 9.24834 37.7325 9.16792C37.6963 9.08751 37.659 9.00756 37.6207 8.92808C37.5825 8.84858 37.5432 8.76957 37.503 8.69105C37.4628 8.61253 37.4216 8.53451 37.3794 8.45699C37.3373 8.37949 37.2942 8.30252 37.2501 8.22609C37.206 8.14966 37.161 8.07378 37.1151 7.99847C37.0692 7.92316 37.0223 7.84842 36.9745 7.77425C36.9267 7.70009 36.878 7.62653 36.8284 7.55359C36.7788 7.48062 36.7283 7.40829 36.6769 7.3366C36.6255 7.26488 36.5732 7.19382 36.52 7.12343C36.4669 7.05302 36.4129 6.98328 36.358 6.91421C36.3031 6.84513 36.2474 6.77674 36.1908 6.70906C36.1365 6.64364 36.0815 6.57891 36.0256 6.51488C35.9697 6.45084 35.9131 6.38752 35.8556 6.32492C35.7981 6.26231 35.7399 6.20044 35.6809 6.13929C35.6219 6.07815 35.5621 6.01776 35.5016 5.95812C35.441 5.89846 35.3798 5.83958 35.3178 5.78148C35.2557 5.72338 35.193 5.66606 35.1296 5.60953C35.0661 5.55302 35.0019 5.4973 34.9371 5.44238C34.8722 5.38746 34.8067 5.33337 34.7405 5.28011C34.6743 5.22683 34.6074 5.1744 34.5399 5.12281C34.4723 5.07122 34.4042 5.02049 34.3354 4.97062C34.2666 4.92075 34.1972 4.87175 34.1271 4.82363C34.0571 4.77548 33.9864 4.72822 33.9152 4.68187C33.844 4.63552 33.7722 4.59006 33.6998 4.5455C33.6275 4.50097 33.5546 4.45734 33.4811 4.4146C33.4076 4.3719 33.3336 4.33011 33.2591 4.28925C33.1846 4.24839 33.1096 4.20847 33.0341 4.16949C32.9586 4.1305 32.8826 4.09248 32.8061 4.05542C32.7297 4.01837 32.6527 3.98226 32.5753 3.9471C32.498 3.91198 32.4202 3.87783 32.3419 3.84466C32.2637 3.81148 32.185 3.77929 32.106 3.74809C32.027 3.71688 31.9475 3.68668 31.8677 3.65747C31.7879 3.62826 31.7078 3.60006 31.6273 3.57287C31.5468 3.54568 31.4659 3.5195 31.3848 3.49434C31.3036 3.46918 31.2221 3.44504 31.1403 3.42193C31.0585 3.39881 30.9765 3.37673 30.8942 3.35568C30.8118 3.33463 30.7292 3.31461 30.6464 3.29564C30.5636 3.27666 30.4805 3.25873 30.3972 3.24183C30.3139 3.22494 30.2305 3.2091 30.1468 3.19431C30.0631 3.17952 29.9792 3.16578 29.8952 3.1531C29.8112 3.14041 29.727 3.12878 29.6427 3.11821C29.5584 3.10764 29.4739 3.09813 29.3894 3.08969C29.3048 3.08124 29.2202 3.07385 29.1354 3.06753C26.102 2.81412 23.1693 4.02949 20.8794 5.96664C20.5726 6.22617 20.2844 6.50097 20.0002 6.7848C17.5492 4.44027 14.7409 2.95653 11.2832 3.03272C11.2558 3.03332 11.2285 3.03344 11.2011 3.03585Z" fill="black"/>
<path d="M13.0024 6.59328C13.6631 6.53508 14.3581 6.64918 14.9988 6.80695C16.6692 7.21828 18.1935 8.26 19.248 9.61207C19.524 9.96602 19.7533 10.3547 19.9854 10.738C20.4283 9.86492 21.2669 8.92883 22.0167 8.30465C23.4598 7.10348 25.4403 6.4368 27.3178 6.61242C29.3862 6.8059 31.3208 7.76672 32.6525 9.37571C34.1621 11.1996 34.8321 13.5237 34.6058 15.8728C34.5105 16.8621 34.2483 17.8183 33.8848 18.741C32.4434 22.4 29.4756 25.093 26.5103 27.5378C24.9604 28.8022 23.355 29.9916 21.6941 31.106C21.1487 31.4666 20.6045 31.8322 20.0355 32.155C19.469 31.913 18.8823 31.4602 18.3652 31.1172C17.2237 30.3613 16.1073 29.57 15.016 28.7432C13.9247 27.9164 12.8607 27.0558 11.8241 26.1614C8.7346 23.4957 5.656 19.8519 5.34549 15.6154C5.17749 13.3231 5.8635 11.0533 7.37549 9.30926C8.84241 7.61723 10.7914 6.75199 13.0024 6.59328ZM13.232 6.9809C12.6894 7.01328 12.1515 7.06527 11.6199 7.18367C11.5253 7.2055 11.4312 7.22916 11.3375 7.25465C11.2439 7.28012 11.1507 7.3074 11.0581 7.33649C10.9655 7.3656 10.8735 7.39649 10.7821 7.42914C10.6907 7.4618 10.6 7.49621 10.5099 7.53238C10.4198 7.56856 10.3305 7.60647 10.2419 7.64613C10.1533 7.68577 10.0655 7.72711 9.9785 7.77016C9.89152 7.8132 9.8054 7.85792 9.72014 7.9043C9.63488 7.95068 9.55055 7.9987 9.46713 8.04836C9.38375 8.09802 9.30134 8.14927 9.21991 8.20211C9.1385 8.25498 9.05815 8.30939 8.97885 8.36535C8.89956 8.42132 8.82137 8.4788 8.74428 8.53781C8.6672 8.5968 8.5913 8.65727 8.51659 8.71922C8.44185 8.78115 8.36835 8.84451 8.29608 8.9093C8.22381 8.97409 8.15282 9.04026 8.08311 9.10781C8.0134 9.17537 7.94503 9.24423 7.87799 9.31442C7.81096 9.38462 7.74531 9.4561 7.68104 9.52883C6.22538 11.1716 5.59249 13.344 5.72506 15.516C5.976 19.6278 8.93924 23.0994 11.8912 25.7052C12.5273 26.2638 13.1744 26.8095 13.8323 27.3423C14.4903 27.8752 15.1586 28.3947 15.8372 28.9009C16.5158 29.4071 17.2043 29.8995 17.9026 30.3783C18.6008 30.8571 19.3083 31.3217 20.0251 31.7723C21.0291 31.1421 22.0072 30.474 22.9594 29.7682C24.1699 28.898 25.3516 27.9905 26.5048 27.0457C29.2388 24.7643 31.9058 22.3425 33.3649 19.016C33.8052 18.0122 34.1267 16.9485 34.2244 15.8531C34.4207 13.6529 33.8582 11.3964 32.424 9.6868C31.176 8.19926 29.3805 7.18379 27.4326 7.01406C27.3736 7.00891 27.3146 7.00447 27.2556 7.00074C27.1966 6.99702 27.1375 6.99403 27.0784 6.99176C27.0193 6.98947 26.9602 6.98791 26.901 6.98707C26.8419 6.98624 26.7827 6.98613 26.7236 6.98676C26.6644 6.98738 26.6053 6.98873 26.5462 6.99078C26.487 6.99284 26.428 6.99563 26.3689 6.99914C26.3099 7.00266 26.2509 7.00689 26.1919 7.01184C26.133 7.01679 26.0741 7.02246 26.0153 7.02887C25.9565 7.03527 25.8978 7.04238 25.8391 7.0502C25.7805 7.05804 25.722 7.06659 25.6635 7.07586C25.6051 7.08511 25.5468 7.09508 25.4887 7.10578C25.4305 7.11646 25.3724 7.12785 25.3145 7.13996C25.2566 7.15207 25.1989 7.16488 25.1413 7.1784C25.0837 7.19194 25.0263 7.20617 24.969 7.2211C24.9118 7.23602 24.8548 7.25164 24.7979 7.26797C24.7411 7.2843 24.6844 7.30132 24.628 7.31903C24.5715 7.33673 24.5153 7.35512 24.4593 7.37418C24.4033 7.39327 24.3476 7.41304 24.2921 7.43348C24.2366 7.45395 24.1813 7.47508 24.1264 7.49688C24.0714 7.51867 24.0166 7.54113 23.9622 7.56426C23.9077 7.58741 23.8536 7.61121 23.7998 7.63567C23.7459 7.66015 23.6923 7.68526 23.6391 7.71102C23.5859 7.7368 23.5329 7.76322 23.4803 7.79028C23.4277 7.81736 23.3755 7.84507 23.3235 7.8734C23.2716 7.90176 23.2201 7.93074 23.1689 7.96035C23.1177 7.98996 23.0668 8.02018 23.0164 8.05102C22.9659 8.08188 22.9158 8.11335 22.8661 8.14543C22.8164 8.17751 22.7671 8.2102 22.7182 8.24348C22.6693 8.27676 22.6208 8.31063 22.5727 8.34508C22.5246 8.37956 22.477 8.41461 22.4298 8.45024C22.3826 8.48589 22.3358 8.5221 22.2895 8.55887C22.2432 8.59567 22.1973 8.63301 22.1519 8.6709C21.4826 9.23817 20.9287 9.91879 20.4592 10.6578C20.2955 10.9155 20.1708 11.2121 19.9866 11.4545C19.9814 11.4481 19.976 11.4418 19.9708 11.4353C19.8017 11.223 19.6841 10.9533 19.5501 10.7169C19.4166 10.4815 19.2611 10.2562 19.1001 10.0387C17.9263 8.45203 16.123 7.26586 14.1419 7.02496C13.8496 6.98938 13.5254 6.95746 13.232 6.9809Z" fill="black"/>
</svg>
