<svg width="24" height="24" viewBox="0 0 24 24" fill="none" xmlns="http://www.w3.org/2000/svg">
<path d="M20.2673 1.64575C20.667 1.61884 21.2725 1.64017 21.6439 1.77545C21.8082 1.83529 21.9705 1.93192 22.0442 2.0984C22.0896 2.20069 22.0904 2.29451 22.0487 2.39757C21.9857 2.55299 21.8422 2.70448 21.7433 2.83969C21.6036 3.03076 21.4673 3.22435 21.3328 3.41905C21.1461 3.68898 20.9193 4.09623 20.712 4.32703C20.5975 4.45451 20.4896 4.52975 20.3305 4.59357L20.6456 4.59161C20.4125 4.90516 20.3008 5.27849 20.1205 5.62021C19.9194 6.00135 19.7279 6.10779 19.3291 6.22997C19.4526 6.23746 19.6325 6.23004 19.7277 6.31583C19.7525 6.36573 19.7335 6.42039 19.7171 6.47058C19.6207 6.76496 19.072 7.82903 18.8663 8.00578C18.7252 8.12712 18.4951 8.19742 18.328 8.28284C18.429 8.28214 18.5577 8.27228 18.6454 8.32737C18.6627 8.3556 18.6666 8.36713 18.6584 8.40012C18.6345 8.49534 18.5456 8.60609 18.4931 8.69039C18.0533 9.39648 17.3565 10.1629 16.6687 10.6368C16.5147 10.7429 16.3544 10.8432 16.1872 10.9272C16.0542 10.994 15.9105 11.0483 15.7858 11.13L15.7704 11.1403C15.8855 11.1024 16.0373 11.0586 16.1595 11.0808C16.1813 11.0847 16.2065 11.0942 16.2186 11.1137C16.2379 11.1452 16.2325 11.1818 16.2221 11.2155C16.1752 11.3671 16.0694 11.5315 15.983 11.6636C15.5229 12.3678 14.8014 13.0947 14.0932 13.5498C13.8484 13.7071 13.5945 13.8599 13.3336 13.9892C13.158 14.0762 12.9747 14.1459 12.8018 14.2384C13.4875 14.0909 14.2031 13.831 14.9103 13.8854C14.6538 13.9416 14.4066 14.0039 14.1696 14.121C13.9591 14.225 13.7668 14.3714 13.5755 14.5066C13.202 14.7706 12.8077 15.031 12.3698 15.1741C12.1559 15.2439 11.935 15.2705 11.7131 15.3007C12.1599 15.3896 12.5355 15.6261 12.7936 16.0027C12.7125 15.9428 12.6305 15.8846 12.5448 15.8315C12.3939 15.7381 12.2072 15.6426 12.0246 15.6495C11.7818 15.6589 11.5196 15.8025 11.2905 15.8807C11.0784 15.953 10.8659 16.0098 10.6454 16.0495C10.4515 16.0844 10.2523 16.1093 10.0552 16.1104C9.87317 16.1113 9.70472 16.068 9.52349 16.1118C9.17477 16.1962 8.69398 16.4511 8.44039 16.7034C8.33571 16.8075 8.25758 16.9253 8.18086 17.0507C8.57403 17.0646 9.02262 17.1459 9.35775 17.3641C9.51458 17.4661 9.64123 17.6076 9.67796 17.7968C9.71458 17.9855 9.64751 18.1348 9.54401 18.2862C9.53681 18.4279 9.53074 18.5687 9.53087 18.7107C9.90907 18.9382 10.3303 19.1196 10.6498 19.4349C10.8247 19.6074 10.8728 19.778 10.8739 20.0202C11.5344 20.0406 14.2793 20.1469 14.6826 20.3634C14.7228 20.3849 14.769 20.4208 14.7767 20.4691C14.7816 20.4999 14.7685 20.5305 14.7509 20.5551C14.6718 20.6662 14.5113 20.7332 14.3932 20.7966C14.0211 20.9968 13.6111 21.1398 13.212 21.2762C12.0716 21.6664 10.8857 21.9558 9.70055 22.1719C8.17931 22.456 6.54779 22.4502 5.04985 22.038C4.72669 21.949 4.26871 21.8171 4.09657 21.4986C4.05425 21.4203 4.03212 21.3341 4.02273 21.246C4.00157 21.0476 4.00873 19.7716 4.05726 19.6232C4.15935 19.3114 5.0766 18.7854 5.3838 18.6303C5.35848 18.3209 5.27069 18.0013 5.28591 17.6905C5.29233 17.5594 5.34651 17.4616 5.44455 17.3753C5.8375 17.0294 6.82631 16.9853 7.3386 17.016C7.40056 16.8021 7.52948 16.5989 7.52817 16.3714C7.52557 15.9229 7.25436 15.4046 7.08685 14.9914C7.00786 14.7966 6.93582 14.5979 6.873 14.3972C6.73216 13.9473 6.66985 13.4949 6.60866 13.0294C6.51489 12.3163 6.32707 12.1724 5.7817 11.7531C6.78639 12.1516 7.01337 12.8798 7.61203 13.6555C7.43279 13.2661 7.30412 12.875 7.25949 12.4473C7.10007 10.9198 7.69457 9.62389 8.63925 8.45697C8.56998 8.60207 8.50411 8.74866 8.46334 8.90469C8.33149 9.40933 8.40074 9.9837 8.47698 10.4921C8.48989 10.3344 8.49208 10.1768 8.51045 10.0192C8.54701 9.70576 8.63048 9.38938 8.7294 9.08977C9.23614 7.55478 10.3841 6.17543 11.6896 5.2471C11.9334 5.07379 12.1933 4.89688 12.4606 4.76178C12.2458 5.14177 12.0344 5.5272 11.9213 5.95196L11.9584 5.87543C12.5377 4.69793 13.6251 3.90239 14.7638 3.31252C15.1619 3.10632 15.5721 2.91612 15.9971 2.77184C16.212 2.86115 16.0653 2.93771 16.3057 2.71059C16.4059 2.61585 16.5147 2.5235 16.6348 2.45469C17.2577 2.09784 18.5183 1.82944 19.239 1.7308C19.5798 1.68416 19.9238 1.65967 20.2673 1.64575Z" fill="#2C2727"/>
<path d="M17.6583 6.16125C18.0126 6.20509 18.3644 6.26777 18.7185 6.3137C18.9618 6.34527 19.2127 6.35829 19.454 6.39586C19.4823 6.40027 19.5007 6.40188 19.5201 6.42429L19.5193 6.43607C19.4457 6.43779 19.375 6.421 19.3002 6.4267C19.0759 6.41351 17.8268 6.243 17.6583 6.16125Z" fill="white"/>
<path d="M8.45927 17.5691C8.55002 17.5985 8.72495 17.645 8.77193 17.7357C8.78619 17.7633 8.79212 17.7894 8.78172 17.8195C8.75562 17.8951 8.65947 17.9383 8.59035 17.9644C8.49223 18.0014 8.3645 18.0366 8.25928 18.033C8.349 17.9828 8.49855 17.911 8.52803 17.8048C8.55254 17.7164 8.50224 17.6414 8.45927 17.5691Z" fill="#4E4D4D"/>
<path d="M7.89374 18.3488L7.97663 18.3506L7.98379 18.3636C7.8957 18.4685 7.71642 18.4993 7.58581 18.5116C7.52167 18.5177 7.45592 18.5154 7.39149 18.5167C7.25449 18.5141 7.05406 18.5004 6.93127 18.4437C7.11383 18.4027 7.46107 18.4545 7.61815 18.3645C7.70292 18.3461 7.80636 18.3525 7.89374 18.3488Z" fill="#767574"/>
<path d="M8.02479 17.4453C8.17217 17.478 8.31762 17.5166 8.45923 17.5691C8.5022 17.6414 8.55249 17.7164 8.52799 17.8047C8.49851 17.911 8.34895 17.9827 8.25923 18.033C8.09879 18.0809 7.92369 18.0976 7.7572 18.1092C7.8466 17.8877 7.93899 17.6683 8.02479 17.4453Z" fill="#767574"/>
<path d="M5.55847 18.2161C5.74266 18.3555 5.93844 18.4426 6.15491 18.5204C6.24121 18.5515 6.33452 18.5772 6.41591 18.6194C6.48213 18.7879 6.55297 18.9526 6.66246 19.0983L6.6608 19.1129L6.64822 19.12C6.28985 19.0551 5.90162 18.9358 5.63321 18.6787C5.5828 18.53 5.57376 18.3713 5.55847 18.2161Z" fill="#C6C9CB"/>
<path d="M7.14273 17.4427C7.16845 17.4393 7.17372 17.4378 7.19855 17.4482C7.20571 17.5171 7.07056 17.9877 7.04734 18.0945C6.78415 18.0595 6.54043 18.0166 6.28791 17.9303C6.21981 17.9053 6.13923 17.8716 6.08399 17.8236C6.06122 17.8038 6.05219 17.7854 6.04932 17.7553C6.0571 17.7322 6.06343 17.7187 6.08091 17.7009C6.24798 17.531 6.8948 17.455 7.14273 17.4427Z" fill="#C6C9CB"/>
<path d="M6.71887 12.6791C6.87997 12.887 7.03236 13.1013 7.19283 13.3097C7.11217 13.2635 7.04523 13.2049 6.98028 13.1387C6.99613 13.3452 7.0636 13.5433 7.12255 13.7407C7.19461 13.9819 7.26425 14.2248 7.34579 14.463C7.50167 14.9184 7.67704 15.3253 7.69304 15.8154C7.68854 15.8529 7.68834 15.8945 7.66864 15.9274C7.58215 15.5458 7.41424 15.1845 7.27005 14.8224C7.1916 14.6253 7.12384 14.4235 7.06327 14.2203C6.91228 13.7136 6.87695 13.1832 6.71887 12.6791Z" fill="white"/>
<path d="M7.89372 18.3488C8.22408 18.3101 8.85734 18.2405 9.07508 17.9692C9.11717 17.9167 9.13953 17.8529 9.12911 17.7855C9.1106 17.6657 9.00328 17.5625 8.90815 17.4949C8.67622 17.3301 8.36774 17.3267 8.1139 17.2212C8.26223 17.1787 8.98481 17.446 9.13683 17.5305C9.26118 17.5996 9.42359 17.704 9.46644 17.8471C9.48626 17.9135 9.47231 17.9814 9.4374 18.0399C9.30154 18.2678 8.89396 18.3894 8.65143 18.4429C8.30433 18.5195 7.94782 18.539 7.59373 18.5292C7.52712 18.5273 7.45669 18.5314 7.39148 18.5167C7.45591 18.5154 7.52165 18.5178 7.5858 18.5117C7.7164 18.4994 7.89569 18.4686 7.98378 18.3637L7.97662 18.3507L7.89372 18.3488Z" fill="#4E4D4D"/>
<path d="M5.47301 17.9298C5.47042 17.7711 5.4795 17.6159 5.59308 17.4932C5.93194 17.1273 6.84244 17.0793 7.32446 17.0627C7.31331 17.0951 7.2997 17.1271 7.28736 17.159C6.86908 17.1762 6.10996 17.2171 5.79443 17.4972C5.73984 17.5456 5.69939 17.6081 5.69679 17.6828C5.69388 17.766 5.74207 17.8418 5.79765 17.8995C6.15942 18.2747 7.10911 18.3645 7.61812 18.3645C7.46105 18.4545 7.11381 18.4027 6.93125 18.4437C6.77392 18.4376 6.61084 18.4079 6.45592 18.3802C6.13023 18.3219 5.67422 18.2181 5.47301 17.9298Z" fill="#C6C9CB"/>
<path d="M16.0718 3.25444C16.1058 3.21582 16.1463 3.18228 16.1809 3.1438C16.3224 2.98666 16.442 2.84475 16.623 2.72901C16.9224 2.53753 17.2865 2.41665 17.6252 2.31347C18.6749 1.99365 20.351 1.70755 21.4344 1.94161L21.4203 1.94236C21.2662 1.9491 21.1101 1.92885 20.9558 1.92517C20.735 1.91992 20.5106 1.93527 20.2908 1.95513C19.3417 2.04088 18.4024 2.24613 17.5022 2.55649C17.2197 2.65387 16.9426 2.7544 16.6747 2.88751C16.5197 2.96449 16.3265 3.05825 16.2023 3.1798C16.1987 3.18343 16.1955 3.18756 16.192 3.19144C16.1556 3.21418 16.1143 3.24827 16.0718 3.25444Z" fill="white"/>
<path d="M8.10195 14.378C7.91728 14.0282 7.76933 13.634 7.65482 13.2553C7.33566 12.1999 7.42284 11.1204 7.86013 10.1122C7.979 9.83809 8.12782 9.57667 8.26912 9.31372C8.25512 9.47127 8.23559 9.6264 8.2367 9.78503C8.24192 10.5376 8.52052 11.255 8.84935 11.9198C8.87249 11.9903 8.90706 12.0562 8.93959 12.1228C8.49167 11.6302 8.26739 10.917 8.21136 10.2609C8.19589 10.0797 8.19922 9.89673 8.20211 9.71512C8.06575 9.95597 7.97381 10.2276 7.89356 10.4918C7.55901 11.593 7.60782 12.6555 7.91377 13.7576C7.94568 13.8726 8.10224 14.2967 8.10195 14.378Z" fill="white"/>
<path d="M6.41589 18.6194C7.05035 18.7988 7.91109 18.8368 8.55629 18.7125C8.76873 18.6716 8.9712 18.605 9.17238 18.5267C9.16717 18.6299 9.16722 18.7367 9.1463 18.838C8.88389 19.1049 7.99524 19.1728 7.6079 19.1757C7.43931 19.1769 6.77726 19.1734 6.64821 19.1201L6.66078 19.1129L6.66244 19.0983C6.55296 18.9526 6.48212 18.7879 6.41589 18.6194Z" fill="#767574"/>
<path d="M11.5817 8.09403C11.607 7.58721 11.7547 7.05341 11.9471 6.58459C12.4025 5.47469 13.115 4.75891 14.1107 4.11654C14.6807 3.74883 15.2965 3.44194 15.9226 3.18115C15.6332 3.5495 15.4444 4.13867 15.3201 4.59318C15.2936 4.66982 15.2721 4.74691 15.2514 4.82534L15.2287 4.87289C15.1948 4.81765 15.28 4.50292 15.298 4.42911C15.3726 4.12254 15.5409 3.6706 15.7018 3.40084C15.3493 3.59089 15.004 3.79552 14.6619 4.00355C13.3374 4.80892 12.3121 5.67981 11.8496 7.21756C11.71 7.68134 11.606 8.20616 11.6081 8.69117C11.3162 7.81855 11.3796 6.86518 11.6168 5.98845C11.2778 6.25014 10.9742 6.55922 10.688 6.87679C9.71116 7.96082 8.89652 9.30927 8.70796 10.7789C8.68795 10.9348 8.7101 11.1285 8.66074 11.2749C8.60961 11.0164 8.65152 10.6459 8.68757 10.3809C8.91635 8.69843 9.93529 7.21191 11.1807 6.10376C11.4101 5.89959 11.6553 5.71673 11.8995 5.53075C11.8332 5.70221 11.7548 5.86546 11.7004 6.04184C11.5001 6.69143 11.4856 7.42526 11.5817 8.09403Z" fill="white"/>
<path d="M5.42094 18.9038C5.54031 19.021 5.6721 19.1181 5.82131 19.1942C6.64207 19.6129 8.20772 19.5542 9.08162 19.268C9.23284 19.3512 9.84668 19.7725 9.8962 19.9191C9.87715 19.9348 9.85877 19.9458 9.83682 19.9572L9.85572 19.9639C9.87253 19.9588 9.89806 19.9455 9.91433 19.9536C10.013 20.0024 10.093 20.2703 10.1184 20.3745C10.1971 20.6972 10.1889 21.1197 10.0091 21.4097C9.9581 21.492 9.89293 21.5662 9.81208 21.6203C9.60358 21.7598 9.10387 21.8718 8.84769 21.9302C8.70937 21.9617 8.19937 22.029 8.11826 22.0794C7.40164 22.1599 6.67834 22.1016 5.96955 21.9828C5.60039 21.9209 4.55227 21.7299 4.34655 21.4209C4.31588 21.3748 4.30529 21.3214 4.30046 21.2671C4.28204 21.0604 4.30281 20.8401 4.30194 20.6319C4.30093 20.3896 4.25094 20.006 4.30113 19.7852C4.31492 19.7245 4.35445 19.6779 4.39765 19.6351C4.49816 19.5352 4.62439 19.4562 4.73935 19.374C4.96408 19.2132 5.19078 19.0567 5.42094 18.9038Z" fill="#343434"/>
<path d="M4.73621 19.7753C4.88874 19.6697 5.34958 19.4119 5.51712 19.3761C5.60297 19.358 5.69904 19.3698 5.78474 19.3854C5.80512 19.3891 5.82543 19.3931 5.84573 19.3973C5.6193 19.6141 5.30955 19.76 5.05382 19.9435C4.94446 19.8926 4.84073 19.8353 4.73621 19.7753Z" fill="white"/>
<path d="M4.60876 19.5864C4.65092 19.6108 4.69371 19.6342 4.73624 19.658C4.84076 19.718 4.94449 19.7753 5.05385 19.8263C6.16162 20.3096 7.86262 20.3306 9.037 20.1216C9.21093 20.0907 9.38276 20.0504 9.55194 19.9996C9.64476 19.9717 9.74304 19.9301 9.83692 19.9103L9.85582 19.917C9.51409 20.0624 9.17339 20.1844 8.81014 20.2646C7.83863 20.4788 6.30542 20.493 5.37423 20.1209C5.23664 20.066 5.10409 19.9988 4.97213 19.9318C4.86775 19.8678 4.77795 19.7915 4.68804 19.7088C4.65804 19.6713 4.63411 19.6272 4.60876 19.5864Z" fill="#2C2727"/>
<path d="M4.68804 19.7089C4.77795 19.7916 4.86775 19.8679 4.97213 19.9319C4.83827 20.1716 4.84236 20.3134 4.83942 20.581C4.83791 20.7186 4.83294 20.8558 4.82745 20.9932C5.46236 21.4814 6.93056 21.6998 7.71504 21.7414C7.78206 21.7449 8.0537 21.775 8.10314 21.7663C8.10939 21.7653 8.11525 21.7625 8.12129 21.7606L8.12643 21.7762L8.11403 21.7749L8.12643 21.7789C7.24417 21.8134 6.3527 21.7925 5.48487 21.6178C5.1926 21.559 4.65883 21.4719 4.48906 21.2034C4.459 21.1558 4.44571 21.1043 4.43987 21.0488C4.42715 20.9278 4.43536 20.0425 4.4607 19.9503C4.49462 19.8269 4.58358 19.7686 4.68804 19.7089Z" fill="white"/>
<path d="M16.1921 3.1915C16.1956 3.18762 16.1988 3.1835 16.2024 3.17987C16.3266 3.05832 16.5197 2.96456 16.6748 2.88758C16.9427 2.75446 17.2198 2.65394 17.5022 2.55656C18.4025 2.2462 19.3417 2.04094 20.2908 1.9552C20.5107 1.93534 20.7351 1.91998 20.9559 1.92523C21.1102 1.92891 21.2663 1.94916 21.4204 1.94243L21.4345 1.94168C21.5757 1.9694 21.7343 2.01452 21.8217 2.13855C21.8584 2.19072 21.8733 2.24628 21.86 2.30913C21.8468 2.37123 21.7608 2.49508 21.7108 2.53327C21.5846 2.73173 21.4253 2.91166 21.2911 3.10553C21.1689 3.28223 21.0487 3.46064 20.9308 3.64031C20.7893 3.85592 20.6524 4.08806 20.4664 4.26863C20.3483 4.38339 20.1675 4.48759 20.0071 4.52584C19.6796 4.60386 19.2724 4.29914 18.9721 4.20397C19.3022 4.42938 19.7146 4.72067 20.1249 4.73535C20.2335 4.73615 20.3331 4.72644 20.4385 4.69883L20.4251 4.71336C20.2811 4.87136 20.1767 5.06589 20.0767 5.25375C19.9954 5.40661 19.9195 5.56497 19.8128 5.70236C19.5109 6.09146 18.9924 6.11394 18.5377 6.13837C18.3248 6.14981 18.0529 6.18187 17.8454 6.13025C17.6595 6.13309 17.4746 6.09855 17.2895 6.10713C17.3923 6.12236 17.5679 6.12834 17.6583 6.16122C17.8268 6.24297 19.0759 6.41348 19.3002 6.42666C19.375 6.42097 19.4457 6.43776 19.5193 6.43604C19.4052 6.67412 18.8518 7.73737 18.6938 7.85974C18.5003 8.00975 17.8229 8.26449 17.5675 8.35416C17.284 8.45367 16.9926 8.53754 16.6983 8.59807C16.5008 8.63869 16.2931 8.66128 16.0997 8.71675C16.1972 8.72082 16.2943 8.7238 16.3918 8.72322C17.0179 8.70856 17.6163 8.58203 18.2266 8.4555C18.3228 8.4297 18.4229 8.42452 18.5188 8.4C18.2484 8.71177 18.0045 9.04511 17.73 9.35442C16.8323 10.3664 15.8558 11.0417 14.525 11.338C14.3445 11.3782 14.16 11.4064 13.9772 11.433C13.8293 11.4545 13.2407 11.5112 13.1606 11.5519C13.353 11.5639 13.5495 11.5558 13.7422 11.5496C14.0262 11.5405 14.3112 11.5276 14.5934 11.4925C15.0777 11.4322 15.5658 11.3235 16.0452 11.2293C16.0246 11.261 16.0024 11.2916 15.9803 11.3224C15.8512 11.5571 15.6477 11.7736 15.4729 11.9751C14.5694 13.0151 13.397 13.854 12.0646 14.2408C11.9076 14.2863 11.7411 14.3381 11.5802 14.3652C11.3651 14.4265 11.1338 14.4644 10.9124 14.4942C10.8154 14.5074 10.603 14.4992 10.5267 14.5329C10.5941 14.5556 10.7822 14.537 10.8616 14.5371C11.669 14.5378 12.437 14.4687 13.2222 14.2788C13.4149 14.2092 13.6314 14.1708 13.8333 14.1382C13.5088 14.3038 13.2236 14.5347 12.9033 14.7071C11.9056 15.244 10.9488 15.1758 9.86673 15.0587C10.3428 15.2446 10.8543 15.2843 11.354 15.3635C11.5053 15.3876 11.6535 15.4268 11.8035 15.4568C11.3813 15.6176 10.9672 15.7742 10.5162 15.8339C10.2417 15.8704 9.98169 15.8462 9.7075 15.8492C9.27502 15.8538 8.82783 16.1673 8.50051 16.425C8.97408 15.4451 9.48855 14.4755 10.039 13.5363C10.1828 13.291 10.3366 13.0519 10.4844 12.8088C11.4519 11.2177 12.5016 9.68639 13.7227 8.27748C14.169 7.76251 14.6582 7.28219 15.1335 6.79403L15.1265 6.79282C15.1415 6.77988 15.135 6.78643 15.1461 6.77364C15.004 6.88224 14.8715 7.03079 14.7431 7.1566C14.3921 7.50021 14.0499 7.85503 13.7181 8.21722C11.7052 10.4147 10.0111 12.9035 8.66785 15.5628C8.42435 16.0447 8.17603 16.527 7.96349 17.0237C7.81035 17.3817 7.67743 17.7511 7.54145 18.1159L7.12845 18.1009C7.6778 16.422 8.47385 14.8307 9.37306 13.3137C10.0013 12.2537 10.7091 11.2452 11.4656 10.2732C12.3903 9.08507 13.3812 7.95362 14.4732 6.91546C14.9095 6.50066 15.3718 6.1107 15.8367 5.72834C16.5593 5.13379 17.3068 4.55975 18.0808 4.03344C18.3368 3.85938 19.4645 3.09902 19.6825 3.04332L19.7086 3.01173C19.487 3.08077 18.8712 3.47194 18.6419 3.61344C17.2553 4.46929 15.89 5.50577 14.679 6.59608C14.3486 6.8935 14.0231 7.19394 13.705 7.5045C13.5261 7.67926 13.3525 7.87667 13.164 8.03983C12.8146 8.43868 12.4414 8.81659 12.0936 9.21753C11.3352 10.0916 10.6272 11.0075 9.97162 11.9609C9.79008 12.2249 9.61383 12.4901 9.44435 12.762C9.38521 12.8569 9.31313 12.9547 9.2636 13.0546C8.84521 13.7495 8.46205 14.462 8.10978 15.1926C7.95646 15.5105 7.78834 15.831 7.69255 16.1715C7.6863 16.0901 7.68174 16.0082 7.66871 15.9274C7.68841 15.8945 7.6886 15.8529 7.6931 15.8154C7.67711 15.3253 7.50174 14.9185 7.34585 14.4631C7.26432 14.2248 7.19467 13.9819 7.12261 13.7407C7.06367 13.5434 6.99619 13.3452 6.98035 13.1387C7.04529 13.2049 7.11223 13.2635 7.19289 13.3097C7.3667 13.4902 7.52136 13.7449 7.66987 13.9507C7.84091 14.1877 8.02615 14.4196 8.1886 14.6619C8.20293 14.6871 8.20158 14.6998 8.23048 14.7085C8.23729 14.6755 8.23373 14.6698 8.22192 14.6378C8.17954 14.5521 8.13681 14.4672 8.10197 14.378C8.10225 14.2967 7.9457 13.8726 7.91379 13.7576C7.60784 12.6554 7.55903 11.593 7.89358 10.4917C7.97383 10.2276 8.06577 9.95593 8.20213 9.71509C8.19924 9.89669 8.19591 10.0797 8.21138 10.2608C8.26741 10.9169 8.49169 11.6302 8.9396 12.1227C8.90707 12.0562 8.8725 11.9903 8.84937 11.9197C8.84068 11.8559 8.81466 11.7895 8.79612 11.7273C8.73639 11.527 8.66533 11.3216 8.66073 11.1108C8.71009 10.9644 8.68794 10.7707 8.70795 10.6149C8.89651 9.14523 9.71115 7.79677 10.688 6.71274C10.9742 6.39517 11.2778 6.08609 11.6168 5.8244C11.3796 6.70113 11.3161 7.65451 11.6081 8.52712C11.606 8.04212 11.71 7.51729 11.8496 7.05351C12.3121 5.51577 13.3374 4.64487 14.6618 3.8395C15.004 3.63147 15.3493 3.42684 15.7018 3.2368C15.5409 3.50655 15.3726 3.9585 15.2979 4.26506C15.28 4.33887 15.1948 4.6536 15.2287 4.70885L15.2514 4.66129C15.272 4.58286 15.2936 4.50577 15.3201 4.42913C15.4058 4.29303 15.4724 4.14007 15.549 3.99814C15.6892 3.73803 15.8715 3.47172 16.0718 3.2545C16.1144 3.24834 16.1556 3.21425 16.1921 3.1915Z" fill="#343434"/>
</svg>
