<svg width="40" height="40" viewBox="0 0 40 40" fill="none" xmlns="http://www.w3.org/2000/svg">
<g clip-path="url(#clip0_25_266)">
<path d="M21.4866 3.11367C21.8564 3.05101 22.3673 3.14912 22.7026 3.31413C23.0862 3.50289 23.3873 3.81451 23.5219 4.2246C23.7544 4.93265 23.4008 5.48328 23.0934 6.09144C23.2318 6.70011 23.2462 7.34464 23.1586 7.9614C24.0555 7.76953 24.9448 7.63136 25.863 7.60898C28.0183 7.5564 30.3064 8.13886 32.2093 9.14101C32.3074 9.19294 32.4049 9.24609 32.5018 9.30046C32.5987 9.35481 32.6949 9.41036 32.7903 9.4671C32.8858 9.52385 32.9806 9.58177 33.0746 9.64085C33.1687 9.69994 33.262 9.76019 33.3545 9.8216C33.4471 9.883 33.5389 9.94555 33.6299 10.0093C33.7209 10.0729 33.8111 10.1377 33.9005 10.2037C33.9898 10.2696 34.0784 10.3366 34.1661 10.4047C34.2539 10.4728 34.3407 10.542 34.4268 10.6123C34.5128 10.6826 34.5979 10.7539 34.6821 10.8263C34.7664 10.8987 34.8497 10.9721 34.9322 11.0466C35.0146 11.121 35.0961 11.1965 35.1766 11.2729C35.2572 11.3494 35.3368 11.4269 35.4154 11.5053C35.494 11.5837 35.5717 11.6632 35.6484 11.7435C35.725 11.8239 35.8007 11.9052 35.8753 11.9875C35.95 12.0697 36.0236 12.1529 36.0962 12.2369C36.1687 12.321 36.2403 12.406 36.3107 12.4918C36.3812 12.5777 36.4506 12.6644 36.5189 12.7519C36.5873 12.8395 36.6545 12.9279 36.7206 13.0172C36.7868 13.1064 36.8518 13.1965 36.9157 13.2873C36.9796 13.3782 37.0423 13.4698 37.104 13.5622C37.1656 13.6546 37.2261 13.7478 37.2854 13.8417C37.3447 13.9356 37.4028 14.0302 37.4598 14.1255C37.5168 14.2209 37.5726 14.3169 37.6271 14.4137C37.6817 14.5104 37.7351 14.6078 37.7873 14.7059C37.8395 14.8039 37.8904 14.9026 37.9401 15.0019C37.9899 15.1012 38.0383 15.2012 38.0856 15.3017C38.1328 15.4022 38.1788 15.5033 38.2235 15.605C38.2683 15.7066 38.3118 15.8088 38.354 15.9116C38.3962 16.0143 38.4371 16.1176 38.4767 16.2213C38.5163 16.3251 38.5547 16.4293 38.5918 16.534C38.6288 16.6387 38.6646 16.7439 38.699 16.8495C38.7335 16.9551 38.7666 17.0611 38.7984 17.1675C38.8375 17.2904 38.8751 17.4138 38.9112 17.5377C38.9472 17.6616 38.9818 17.7859 39.0148 17.9106C39.0479 18.0353 39.0793 18.1604 39.109 18.2859C39.1389 18.4114 39.1673 18.5373 39.1941 18.6635C39.221 18.7897 39.2462 18.9162 39.2699 19.043C39.2936 19.1698 39.3158 19.2969 39.3363 19.4243C39.3569 19.5516 39.3759 19.6792 39.3934 19.8071C39.4108 19.9349 39.4267 20.0629 39.441 20.1912C39.4551 20.3194 39.4677 20.4478 39.4789 20.5763C39.4901 20.7048 39.4996 20.8335 39.5074 20.9623C39.5155 21.091 39.5219 21.2199 39.5266 21.3488C39.5312 21.4777 39.5344 21.6067 39.5359 21.7357C39.5375 21.8647 39.5375 21.9937 39.5359 22.1227C39.5344 22.2517 39.5311 22.3807 39.5262 22.5096C39.5215 22.6385 39.5151 22.7674 39.507 22.8961C39.4992 23.0249 39.4897 23.1536 39.4785 23.2821C39.4673 23.4106 39.4546 23.539 39.4402 23.6672C39.4262 23.7954 39.4104 23.9234 39.393 24.0513C39.3755 24.1791 39.3564 24.3067 39.3355 24.4341C39.315 24.5614 39.2928 24.6885 39.2691 24.8153C39.2454 24.9421 39.2202 25.0686 39.1934 25.1948C39.1665 25.321 39.1381 25.4468 39.1082 25.5723C39.0783 25.6978 39.0467 25.8229 39.0137 25.9477C38.9806 26.0724 38.9461 26.1966 38.91 26.3205C38.8739 26.4444 38.8363 26.5678 38.7971 26.6907C38.758 26.8136 38.7174 26.9361 38.6752 27.058C38.633 27.1799 38.5894 27.3013 38.5442 27.4222C38.4991 27.543 38.4525 27.6633 38.4043 27.783C38.3562 27.9027 38.3066 28.0218 38.2556 28.1403C38.2045 28.2588 38.152 28.3766 38.0981 28.4938C38.0441 28.611 37.9887 28.7275 37.9319 28.8434C37.8751 28.9592 37.8168 29.0743 37.7572 29.1887C36.0012 32.4983 32.7423 35.2168 29.1564 36.3085C25.8935 37.3019 22.5472 37.1252 19.518 35.5088C18.8428 35.1324 18.2427 34.6653 17.6043 34.235C16.3721 34.8524 14.9788 35.2658 13.6156 35.4585C10.7733 35.8602 8.07566 35.2196 5.77875 33.4868C4.84128 32.7796 3.99914 31.91 3.26628 30.9951C2.85491 30.4816 2.44012 29.9543 2.09353 29.394C1.26111 28.0482 0.747617 26.4358 0.531933 24.8739C-0.0191043 20.8834 1.35963 16.8508 3.75856 13.6808C3.82631 13.5908 3.89494 13.5015 3.96445 13.4128C4.03395 13.3241 4.10432 13.2362 4.17554 13.1489C4.24677 13.0616 4.31884 12.975 4.39175 12.8891C4.46467 12.8032 4.53843 12.7181 4.61304 12.6336C4.68763 12.5492 4.76303 12.4655 4.83925 12.3826C4.9155 12.2996 4.99255 12.2174 5.07039 12.136C5.14822 12.0545 5.22686 11.9738 5.30628 11.8939C5.38569 11.814 5.46588 11.7349 5.54687 11.6566C5.62783 11.5783 5.70957 11.5007 5.79207 11.424C5.87457 11.3473 5.9578 11.2713 6.04175 11.1962C6.12574 11.1211 6.21045 11.0469 6.29589 10.9734C6.38131 10.9 6.46746 10.8274 6.55433 10.7556C6.64118 10.6839 6.72873 10.613 6.81699 10.5429C6.90522 10.4729 6.99414 10.4037 7.08375 10.3354C7.17335 10.2671 7.26362 10.1997 7.35453 10.1332C7.44546 10.0667 7.53703 10.0011 7.62921 9.93632C7.72143 9.87158 7.81427 9.80776 7.90773 9.74484C8.00119 9.68192 8.09526 9.61993 8.18992 9.55886C8.28461 9.49779 8.37987 9.43766 8.4757 9.37847C8.57156 9.31925 8.66799 9.26098 8.765 9.20367C8.86197 9.14635 8.95951 9.08999 9.05761 9.0346C9.15571 8.97919 9.25434 8.92475 9.35351 8.87128C9.45268 8.81782 9.55235 8.76532 9.65253 8.71378C9.75274 8.66227 9.85343 8.61174 9.95461 8.56218C10.0558 8.51265 10.1574 8.46411 10.2596 8.41656C10.3617 8.36901 10.4643 8.32246 10.5673 8.27691C10.6704 8.23136 10.7739 8.18683 10.8778 8.14331C10.9817 8.0998 11.0861 8.0573 11.1908 8.01582C11.2956 7.97436 11.4007 7.93393 11.5062 7.89453C11.6118 7.8551 11.7177 7.81671 11.824 7.77937C11.9303 7.74205 12.0369 7.70576 12.1439 7.6705C12.2509 7.63527 12.3583 7.60108 12.466 7.56792C13.5187 7.24753 14.5975 7.04363 15.6861 6.89312C15.7808 6.58472 15.9367 6.32999 16.1395 6.07933C17.261 4.69265 19.7103 3.29843 21.4866 3.11367ZM26.1627 8.32878C25.0499 8.41527 24.1046 8.51203 23.031 8.83804C22.8723 9.52679 22.4892 10.1651 21.8819 10.5456C21.2883 10.9175 20.6188 10.9297 19.9528 10.7743C19.9197 10.7666 19.8869 10.758 19.8542 10.7487C16.6548 12.9339 14.3711 16.6736 13.6566 20.4642C13.5637 20.9349 13.4929 21.409 13.4444 21.8864C13.3959 22.3637 13.3699 22.8423 13.3662 23.3221C13.3577 25.9712 14.1203 28.6617 15.6182 30.8542C17.433 33.5105 20.0891 35.4407 23.2768 36.0387C24.1485 36.2022 25.2676 36.307 26.1436 36.1788C26.8125 36.1072 27.4627 36.0173 28.1182 35.8605C28.2116 35.8376 28.3047 35.8138 28.3975 35.7889C28.4904 35.7641 28.583 35.7384 28.6753 35.7117C28.7676 35.685 28.8597 35.6573 28.9514 35.6287C29.0432 35.6001 29.1347 35.5706 29.2259 35.5401C29.317 35.5096 29.4079 35.4783 29.4984 35.4459C29.5889 35.4136 29.6791 35.3804 29.7689 35.3462C29.8588 35.312 29.9483 35.277 30.0374 35.241C30.1265 35.205 30.2153 35.1681 30.3036 35.1303C30.392 35.0925 30.48 35.0537 30.5675 35.0141C30.6551 34.9745 30.7423 34.934 30.829 34.8926C30.9158 34.8512 31.0021 34.809 31.088 34.7658C31.1739 34.7226 31.2593 34.6786 31.3443 34.6337C31.4293 34.5888 31.5138 34.543 31.5978 34.4964C31.6819 34.4498 31.7655 34.4023 31.8485 34.3539C31.9316 34.3056 32.0142 34.2564 32.0963 34.2064C32.1783 34.1563 32.2599 34.1055 32.3409 34.0538C32.4219 34.0021 32.5024 33.9495 32.5824 33.8962C32.6624 33.8428 32.7418 33.7887 32.8206 33.7337C32.8995 33.6788 32.9778 33.623 33.0555 33.5664C33.1332 33.5098 33.2103 33.4525 33.2868 33.3943C33.3634 33.3362 33.4393 33.2773 33.5146 33.2176C33.59 33.1579 33.6647 33.0974 33.7387 33.0362C33.8129 32.9749 33.8863 32.913 33.9591 32.8502C34.032 32.7875 34.1042 32.724 34.1757 32.6598C34.2472 32.5956 34.3181 32.5307 34.3883 32.465C34.4585 32.3994 34.528 32.333 34.5968 32.2659C34.6657 32.1988 34.7338 32.1311 34.8013 32.0626C34.8688 31.9941 34.9355 31.925 35.0016 31.8552C35.0676 31.7853 35.1329 31.7148 35.1975 31.6436C35.2621 31.5725 35.326 31.5006 35.3891 31.4281C35.4522 31.3556 35.5146 31.2825 35.5763 31.2088C35.6379 31.135 35.6988 31.0607 35.7589 30.9857C35.836 30.8893 35.912 30.7921 35.9867 30.6939C36.0614 30.5957 36.1349 30.4966 36.2072 30.3966C36.2795 30.2966 36.3506 30.1957 36.4203 30.094C36.4901 29.9922 36.5587 29.8896 36.626 29.7862C36.6932 29.6827 36.7592 29.5785 36.8239 29.4734C36.8886 29.3683 36.952 29.2625 37.0141 29.1559C37.0762 29.0492 37.1369 28.9418 37.1964 28.8337C37.2558 28.7255 37.3139 28.6167 37.3707 28.5071C37.4274 28.3976 37.4828 28.2873 37.5369 28.1764C37.5909 28.0655 37.6436 27.9539 37.6949 27.8416C37.7462 27.7294 37.7961 27.6166 37.8446 27.5031C37.8931 27.3897 37.9402 27.2756 37.9859 27.161C38.0315 27.0464 38.0758 26.9312 38.1187 26.8155C38.1615 26.6998 38.2029 26.5835 38.2429 26.4668C38.2829 26.3501 38.3214 26.2329 38.3586 26.1152C38.3956 25.9975 38.4313 25.8793 38.4655 25.7608C38.4997 25.6422 38.5324 25.5233 38.5636 25.4039C38.5949 25.2845 38.6246 25.1648 38.6529 25.0447C38.6812 24.9246 38.708 24.8041 38.7334 24.6834C38.7587 24.5626 38.7825 24.4415 38.8049 24.3202C38.8272 24.1988 38.8481 24.0772 38.8674 23.9553C38.8867 23.8335 38.9046 23.7114 38.9209 23.5891C38.9372 23.4668 38.9521 23.3443 38.9654 23.2216C38.9787 23.0989 38.9905 22.9761 39.0008 22.8532C39.0111 22.7302 39.0198 22.6071 39.0271 22.4839C39.0343 22.3608 39.04 22.2375 39.0443 22.1142C39.0485 21.9909 39.0512 21.8675 39.0523 21.7441C39.0535 21.6207 39.0531 21.4973 39.0512 21.374C39.0494 21.2506 39.046 21.1272 39.0411 21.0039C39.0362 20.8807 39.0297 20.7574 39.0218 20.6343C39.0138 20.5112 39.0043 20.3881 38.9934 20.2652C38.9824 20.1423 38.9699 20.0196 38.9559 19.897C38.9461 19.8071 38.9354 19.7173 38.9237 19.6276C38.9122 19.5379 38.8997 19.4483 38.8863 19.3589C38.8729 19.2694 38.8586 19.1801 38.8435 19.0909C38.8283 19.0018 38.8123 18.9128 38.7953 18.8239C38.7784 18.7351 38.7606 18.6464 38.7419 18.5579C38.7232 18.4695 38.7036 18.3812 38.6832 18.2931C38.6627 18.205 38.6413 18.1171 38.6191 18.0294C38.5969 17.9417 38.5738 17.8543 38.5499 17.7671C38.5259 17.6799 38.5011 17.5929 38.4754 17.5062C38.4497 17.4195 38.4232 17.333 38.3958 17.2468C38.3684 17.1606 38.3401 17.0747 38.311 16.9891C38.2818 16.9035 38.2519 16.8181 38.221 16.7331C38.1902 16.6481 38.1586 16.5634 38.126 16.479C38.0935 16.3946 38.0602 16.3105 38.026 16.2268C37.9918 16.1431 37.9568 16.0597 37.9209 15.9767C37.8851 15.8936 37.8484 15.811 37.8109 15.7287C37.7734 15.6463 37.7351 15.5644 37.696 15.4829C37.6568 15.4013 37.6169 15.3202 37.5761 15.2394C37.5354 15.1587 37.4938 15.0784 37.4515 14.9985C37.4091 14.9185 37.366 14.8391 37.3221 14.76C37.2781 14.681 37.2334 14.6024 37.1879 14.5242C37.1424 14.446 37.0962 14.3683 37.0491 14.2911C37.002 14.2138 36.9542 14.1371 36.9057 14.0608C36.8571 13.9845 36.8078 13.9087 36.7577 13.8334C36.7076 13.7581 36.6567 13.6833 36.6052 13.609C36.5536 13.5347 36.5012 13.4609 36.4482 13.3877C36.3952 13.3144 36.3414 13.2417 36.2869 13.1696C36.2324 13.0974 36.1772 13.0258 36.1212 12.9547C36.0653 12.8836 36.0087 12.8131 35.9514 12.7431C35.894 12.6732 35.836 12.6038 35.7773 12.535C35.7186 12.4662 35.6592 12.398 35.5991 12.3304C35.539 12.2628 35.4783 12.1958 35.4169 12.1294C35.0275 11.708 34.618 11.3002 34.1707 10.94C34.1128 10.8935 34.0545 10.8475 33.9957 10.8021C33.9369 10.7568 33.8777 10.7119 33.818 10.6677C33.7584 10.6234 33.6984 10.5797 33.638 10.5365C33.5775 10.4934 33.5167 10.4508 33.4554 10.4088C33.3942 10.3668 33.3325 10.3253 33.2705 10.2845C33.2085 10.2436 33.1461 10.2034 33.0833 10.1637C33.0206 10.124 32.9574 10.0849 32.8939 10.0464C32.8304 10.0079 32.7665 9.97001 32.7023 9.93269C32.6381 9.8954 32.5735 9.85871 32.5086 9.82261C32.4437 9.78652 32.3785 9.75104 32.3129 9.71617C32.2474 9.6813 32.1815 9.64704 32.1152 9.61339C32.049 9.57977 31.9825 9.54677 31.9157 9.51437C31.8488 9.48197 31.7817 9.45022 31.7143 9.4191C31.6468 9.38795 31.5791 9.35746 31.5111 9.32761C31.4431 9.29774 31.3749 9.26852 31.3063 9.23996C31.2378 9.21136 31.169 9.18342 31.0999 9.15613C31.0308 9.12884 30.9615 9.1022 30.8919 9.07621C30.8224 9.05022 30.7525 9.02488 30.6825 9.00019C30.6125 8.9755 30.5422 8.95148 30.4717 8.92812C30.4012 8.90476 30.3305 8.88207 30.2596 8.86003C30.1887 8.83798 30.1175 8.8166 30.0462 8.79589C29.9749 8.77519 29.9034 8.75515 29.8317 8.73578C29.76 8.71643 29.6881 8.69774 29.6161 8.67972C29.544 8.6617 29.4718 8.64436 29.3994 8.62769C29.327 8.61102 29.2545 8.59503 29.1819 8.57972C29.1092 8.56441 29.0364 8.54979 28.9634 8.53585C28.8905 8.52192 28.8174 8.50867 28.7442 8.49609C28.671 8.48351 28.5977 8.47162 28.5243 8.46042C28.4509 8.44923 28.3774 8.43872 28.3037 8.4289C28.2301 8.41908 28.1564 8.40996 28.0827 8.40152C28.0089 8.39308 27.935 8.38533 27.8611 8.37828C27.7872 8.37124 27.7132 8.36489 27.6391 8.35921C27.1587 8.32023 26.6425 8.28308 26.1627 8.32878ZM17.174 11.8637C16.6177 11.9114 16.0712 12.0279 15.5324 12.1707C12.6528 12.9334 10.0597 14.7782 8.1532 17.0378C6.00929 19.5789 4.38468 23.0468 4.67968 26.4414C4.8064 27.8993 5.23777 29.3271 6.05972 30.5474C6.23753 30.8114 6.42449 31.0858 6.67023 31.2913C7.04406 31.604 7.57554 31.7722 8.02804 31.9429C10.0277 32.6288 11.8428 32.7202 13.8976 32.1854C14.374 32.0614 14.8288 31.8782 15.2994 31.7408C14.8552 31.1277 14.4539 30.5111 14.1126 29.8332C12.7569 27.1412 12.3173 23.9053 12.7884 20.9373C12.8109 20.7911 12.8353 20.6451 12.8618 20.4995C12.8882 20.3539 12.9166 20.2087 12.9469 20.0638C12.9772 19.9189 13.0095 19.7745 13.0438 19.6305C13.078 19.4866 13.1142 19.3431 13.1523 19.2001C13.1904 19.0571 13.2304 18.9146 13.2724 18.7727C13.3143 18.6307 13.3582 18.4894 13.4039 18.3487C13.4497 18.2079 13.4973 18.0678 13.5469 17.9284C13.5964 17.7889 13.6478 17.6501 13.7011 17.5121C13.7544 17.374 13.8095 17.2367 13.8665 17.1001C13.9235 16.9635 13.9823 16.8277 14.043 16.6927C14.1036 16.5577 14.1661 16.4236 14.2303 16.2903C14.2946 16.1569 14.3607 16.0245 14.4285 15.893C14.4964 15.7615 14.5659 15.6309 14.6373 15.5012C14.7087 15.3715 14.7818 15.2429 14.8566 15.1152C14.9314 14.9875 15.008 14.8609 15.0862 14.7353C15.1645 14.6096 15.2444 14.4851 15.326 14.3616C15.7272 13.7416 16.1853 13.1457 16.6584 12.5793C16.7459 12.4746 17.262 11.9396 17.2686 11.865C17.2338 11.8589 17.2089 11.8582 17.174 11.8637ZM17.13 9.22687C15.5384 9.33515 14.0591 9.73956 12.5942 10.3632C12.441 10.4274 12.2887 10.4939 12.1375 10.5626C11.9862 10.6313 11.8359 10.7021 11.6867 10.7752C11.5375 10.8482 11.3894 10.9234 11.2423 11.0008C11.0953 11.0782 10.9495 11.1577 10.8048 11.2393C10.66 11.3209 10.5165 11.4046 10.3743 11.4904C10.232 11.5762 10.091 11.664 9.95125 11.7539C9.81153 11.8438 9.67315 11.9357 9.53609 12.0296C9.39903 12.1235 9.26338 12.2194 9.12914 12.3172C8.99487 12.4151 8.86205 12.5149 8.7307 12.6166C8.59934 12.7183 8.46949 12.8219 8.34113 12.9274C8.2128 13.0329 8.08601 13.1403 7.96078 13.2494C7.83557 13.3586 7.71196 13.4696 7.58996 13.5824C7.46798 13.6952 7.34765 13.8097 7.22898 13.926C7.11031 14.0423 6.99337 14.1603 6.87816 14.28C6.76292 14.3996 6.64945 14.5209 6.53773 14.6439C6.42604 14.7669 6.31615 14.8915 6.20808 15.0177C3.58683 18.022 2.10751 21.9473 2.38288 25.9482C2.56056 28.5297 3.69419 31.145 5.66332 32.8568C7.69472 34.6227 10.2136 35.2857 12.8669 35.0997C14.095 35.0137 15.3215 34.6862 16.47 34.2525C16.7298 34.1544 17.0141 34.0654 17.2407 33.9015L17.0594 33.7109C16.917 33.5698 16.7775 33.423 16.6218 33.2967C14.1898 34.3913 11.5605 34.6538 9.04109 33.7015C7.04886 32.9484 5.46832 31.492 4.59101 29.5468C3.42171 26.9541 3.7784 23.8347 4.76082 21.2446C6.20804 17.4291 9.29769 14.0437 13.0329 12.3706C14.7471 11.6028 16.0779 11.3354 17.9467 11.2741C18.3074 10.9054 18.7205 10.5996 19.1383 10.2996C18.7209 9.95085 18.3043 9.60581 17.9122 9.22835C17.6543 9.22226 17.3871 9.20328 17.13 9.22687ZM15.659 7.68457C15.3915 7.71121 15.1249 7.74489 14.8592 7.78562C14.5934 7.82635 14.329 7.87406 14.0658 7.92874C13.8026 7.98346 13.541 8.04507 13.2811 8.11359C13.0211 8.1821 12.7631 8.25743 12.5072 8.33956C9.50406 9.32605 6.74097 11.3361 4.74859 13.7758C2.27098 16.8097 0.583828 20.7838 0.990316 24.7602C1.00145 24.8741 1.01452 24.9878 1.02951 25.1013C1.04449 25.2147 1.0614 25.3279 1.08023 25.4408C1.09905 25.5537 1.11978 25.6663 1.14241 25.7785C1.16505 25.8907 1.18958 26.0024 1.216 26.1138C1.24242 26.2252 1.27072 26.3361 1.3009 26.4465C1.33108 26.5569 1.36312 26.6667 1.39702 26.776C1.43092 26.8854 1.46667 26.9941 1.50425 27.1022C1.54183 27.2103 1.58124 27.3178 1.62246 27.4245C1.66368 27.5313 1.7067 27.6374 1.75152 27.7427C1.79634 27.848 1.84292 27.9525 1.89128 28.0563C1.93964 28.16 1.98974 28.2629 2.04158 28.365C2.09342 28.467 2.14698 28.5681 2.20225 28.6684C2.25751 28.7686 2.31446 28.8679 2.37309 28.9662C2.43173 29.0644 2.49201 29.1617 2.55393 29.258C2.61586 29.3543 2.6794 29.4494 2.74455 29.5435C2.8097 29.6376 2.87643 29.7306 2.94473 29.8225C2.81796 29.5088 2.69033 29.1945 2.58963 28.8713C2.41534 28.2672 2.25906 27.6591 2.16462 27.0369C1.65014 23.6475 2.67219 20.4305 4.30128 17.4823C5.76593 14.8317 7.76371 12.6096 10.3658 11.0385C10.6155 10.885 10.87 10.7399 11.1293 10.6032C11.3887 10.4665 11.6522 10.3385 11.92 10.2192C12.1878 10.0999 12.4592 9.98954 12.7342 9.88816C13.0093 9.78678 13.2874 9.69459 13.5685 9.6116C14.9316 9.21843 16.4251 9.00234 17.8418 9.17273L17.4893 8.80816C17.0111 8.79917 16.441 8.698 16.0932 8.33773C15.9559 8.19539 15.7316 7.69324 15.7315 7.69312C15.7224 7.68539 15.7097 7.68324 15.6988 7.67832L15.659 7.68457ZM21.2928 3.60168C19.5776 3.74522 18.0202 4.47523 16.899 5.79839C16.5493 6.21105 16.0803 6.75425 16.1266 7.32984C16.1465 7.57695 16.2564 7.78691 16.4503 7.94179C16.8265 8.2423 17.401 8.28097 17.8619 8.24402C19.5514 8.16449 21.1271 7.33761 22.2554 6.10015C22.652 5.66527 23.0644 5.08406 23.0344 4.46449C23.0241 4.25156 22.9446 4.05562 22.7856 3.9107C22.4232 3.58037 21.7676 3.56106 21.3061 3.59992C21.3016 3.60029 21.2972 3.60109 21.2928 3.60168ZM21.702 7.3039C20.5508 8.14796 19.4052 8.61195 17.9816 8.76269C18.1774 8.8857 18.3564 9.05437 18.5357 9.20101C18.7873 9.41028 19.0491 9.60592 19.3211 9.78792C19.8676 10.1086 20.4225 10.4171 21.0766 10.2504C21.5864 10.1205 21.986 9.76109 22.2471 9.31355C22.3246 9.1807 22.3885 9.04081 22.4492 8.89968C22.3046 8.48976 21.994 7.61992 21.7163 7.30816L21.702 7.3039ZM7.46851 32.0844C7.72406 32.298 7.97574 32.5102 8.258 32.6885C9.6875 33.5916 11.4536 33.8241 13.1111 33.6761C13.8523 33.6099 14.6003 33.4752 15.3096 33.248C15.6237 33.1474 15.9331 32.9997 16.2504 32.916C16.0287 32.6534 15.8034 32.3927 15.5877 32.1251C13.4889 32.9556 11.3464 33.1764 9.14187 32.6282C8.79 32.5394 8.44381 32.4323 8.10332 32.3068C7.89882 32.2328 7.68203 32.1241 7.46851 32.0844ZM22.4505 6.68152C22.299 6.81906 22.1452 6.95472 21.9978 7.09675C22.1324 7.28617 22.2716 7.47371 22.396 7.66999L22.5519 7.93558C22.5556 7.68816 22.6069 6.87605 22.4505 6.68152Z" fill="black"/>
<path d="M18.7188 8.76407C19.0928 8.95696 19.6905 9.6877 19.985 10.023C19.4258 9.80329 19.0632 9.22786 18.7188 8.76407Z" fill="black"/>
<path d="M22.1544 4.00027C22.1793 4.00145 22.197 4.00168 22.2224 4.00606C22.2968 4.01887 22.353 4.05735 22.3931 4.12145C22.4652 4.2366 22.4511 4.39578 22.4163 4.52094C22.2521 5.11203 21.1361 5.7125 20.6093 6.00246C20.5247 6.04317 20.443 6.09524 20.3612 6.14164C21.1233 5.48621 21.7308 4.93805 22.1544 4.00027Z" fill="black"/>
<path d="M20.1112 6.29192C20.1108 6.29488 20.1109 6.29789 20.1101 6.30074C20.0791 6.40832 19.839 6.54707 19.7476 6.60789C19.0777 7.0536 17.9744 7.67785 17.1581 7.49774C16.9393 7.44946 16.8078 7.34797 16.6871 7.16317C16.6612 7.0611 16.6503 6.9561 16.6621 6.85094C16.671 6.77219 16.6878 6.71664 16.7515 6.6661C16.8765 6.6552 17.1699 6.90953 17.3033 6.9675C17.4062 7.01215 17.5193 7.03914 17.6318 7.04004C18.3065 7.04524 19.4651 6.54297 20.1112 6.29192Z" fill="black"/>
<path d="M27.5339 10.7119C27.5415 10.7105 27.5491 10.7087 27.5568 10.7078C27.8822 10.6698 28.2676 10.7217 28.5947 10.7438C30.6983 10.8859 32.7973 11.6396 34.4411 12.9791C36.6799 14.8034 37.9733 17.5623 38.2576 20.4099C38.2682 20.5239 38.2774 20.6381 38.2853 20.7523C38.2931 20.8666 38.2996 20.9809 38.3046 21.0953C38.3096 21.2098 38.3133 21.3242 38.3155 21.4387C38.3178 21.5533 38.3186 21.6678 38.318 21.7823C38.3175 21.8968 38.3155 22.0113 38.3121 22.1258C38.3088 22.2403 38.304 22.3547 38.2978 22.4691C38.2917 22.5834 38.2841 22.6977 38.2751 22.8119C38.2662 22.926 38.2558 23.0401 38.244 23.154C38.2323 23.268 38.2191 23.3817 38.2046 23.4953C38.1901 23.6089 38.1741 23.7223 38.1568 23.8355C38.1395 23.9487 38.1208 24.0617 38.1007 24.1745C38.0806 24.2873 38.0592 24.3997 38.0363 24.5119C38.0135 24.6242 37.9893 24.7361 37.9637 24.8478C37.9381 24.9594 37.9112 25.0707 37.8829 25.1817C37.8546 25.2926 37.8249 25.4033 37.7939 25.5135C37.7629 25.6238 37.7305 25.7336 37.6968 25.8431C37.6631 25.9525 37.6281 26.0616 37.5917 26.1702C37.5554 26.2788 37.5177 26.3869 37.4787 26.4946C37.4396 26.6023 37.3993 26.7094 37.3577 26.8161C37.316 26.9228 37.2731 27.029 37.2289 27.1346C37.1846 27.2403 37.1391 27.3453 37.0923 27.4499C37.0455 27.5544 36.9974 27.6584 36.948 27.7617C36.8987 27.865 36.848 27.9678 36.7962 28.0699C36.7443 28.172 36.6912 28.2734 36.6368 28.3743C36.5825 28.4751 36.5269 28.5752 36.4701 28.6746C36.4133 28.7741 36.3553 28.8728 36.296 28.9709C36.2368 29.0689 36.1764 29.1662 36.1148 29.2627C36.0532 29.3593 35.9904 29.4551 35.9265 29.5501C35.8625 29.6451 35.7974 29.7393 35.7312 29.8327C35.6649 29.9261 35.5976 30.0187 35.529 30.1105C35.4605 30.2023 35.3909 30.2932 35.3201 30.3833C35.2494 30.4733 35.1775 30.5625 35.1046 30.6508C33.4063 32.7201 31.0544 34.2786 28.4449 34.9157C27.8289 35.0662 27.2098 35.1509 26.5795 35.2127C23.9732 35.2961 21.5624 34.5253 19.5826 32.8072C17.3119 30.8368 16.0449 27.9857 15.8393 25.0066C15.8317 24.8918 15.8255 24.777 15.8207 24.662C15.8159 24.5471 15.8125 24.4321 15.8105 24.3171C15.8085 24.202 15.8079 24.087 15.8087 23.972C15.8095 23.8569 15.8117 23.7419 15.8153 23.6269C15.819 23.5119 15.824 23.397 15.8304 23.2821C15.8368 23.1673 15.8446 23.0525 15.8538 22.9378C15.863 22.8232 15.8736 22.7086 15.8856 22.5942C15.8976 22.4798 15.911 22.3656 15.9258 22.2515C15.9406 22.1374 15.9567 22.0235 15.9743 21.9098C15.9918 21.7961 16.0108 21.6826 16.0311 21.5694C16.0514 21.4562 16.0731 21.3432 16.0962 21.2305C16.1193 21.1178 16.1437 21.0054 16.1695 20.8933C16.1954 20.7812 16.2225 20.6694 16.251 20.5579C16.2796 20.4465 16.3095 20.3354 16.3407 20.2247C16.372 20.114 16.4046 20.0036 16.4385 19.8937C16.4724 19.7838 16.5077 19.6743 16.5443 19.5652C16.5809 19.4562 16.6188 19.3476 16.6581 19.2394C16.6973 19.1313 16.7379 19.0236 16.7798 18.9165C16.8216 18.8093 16.8648 18.7027 16.9093 18.5966C16.9538 18.4905 16.9995 18.385 17.0465 18.28C17.0936 18.175 17.1419 18.0706 17.1915 17.9668C17.2411 17.863 17.2919 17.7598 17.344 17.6572C17.3961 17.5546 17.4495 17.4527 17.504 17.3515C17.5586 17.2502 17.6145 17.1496 17.6715 17.0497C17.7285 16.9498 17.7868 16.8506 17.8462 16.7521C17.9057 16.6536 17.9663 16.5559 18.0282 16.4589C18.09 16.3618 18.153 16.2656 18.2172 16.1701C18.2814 16.0746 18.3467 15.98 18.4132 15.8861C18.4797 15.7922 18.5473 15.6991 18.616 15.6069C18.6848 15.5147 18.7547 15.4233 18.8257 15.3327C18.8966 15.2422 18.9687 15.1526 19.0419 15.0638C19.1151 14.975 19.1893 14.8871 19.2646 14.8002C21.4516 12.2962 24.2182 10.935 27.5339 10.7119ZM27.5003 11.1802C26.5738 11.2345 25.4924 11.3141 24.6389 11.6993C24.9957 12.098 25.3408 12.4936 25.6352 12.9415C27.0136 15.0387 27.5442 17.7526 27.4111 20.2341C27.231 23.5927 25.9151 26.7189 23.8566 29.3564C23.6954 29.5661 23.5295 29.7721 23.3588 29.9741C23.1881 30.1762 23.0128 30.3742 22.8329 30.5682C22.653 30.7621 22.4688 30.9518 22.2801 31.1372C22.0914 31.3226 21.8985 31.5035 21.7014 31.68C21.2454 32.0864 20.7643 32.4409 20.2684 32.7962C21.8194 33.7133 23.9714 33.7277 25.696 33.4263C26.1243 33.3319 26.5499 33.2336 26.9674 33.0984C27.0537 33.0699 27.1396 33.0404 27.2253 33.0101C27.3109 32.9797 27.3962 32.9484 27.4812 32.9162C27.5662 32.884 27.6508 32.8509 27.735 32.8168C27.8193 32.7828 27.9032 32.7479 27.9867 32.712C28.0702 32.6762 28.1533 32.6394 28.236 32.6018C28.3187 32.5641 28.401 32.5256 28.4828 32.4862C28.5647 32.4467 28.6461 32.4064 28.7271 32.3652C28.8081 32.3241 28.8887 32.282 28.9688 32.2391C29.0489 32.1961 29.1285 32.1524 29.2076 32.1077C29.2867 32.0631 29.3654 32.0176 29.4436 31.9712C29.5217 31.9249 29.5994 31.8777 29.6765 31.8297C29.7537 31.7817 29.8303 31.7328 29.9064 31.6831C29.9824 31.6335 30.058 31.583 30.133 31.5316C30.208 31.4803 30.2824 31.4282 30.3563 31.3753C30.4302 31.3224 30.5034 31.2687 30.5762 31.2142C30.6489 31.1597 30.721 31.1044 30.7925 31.0483C30.864 30.9923 30.9349 30.9355 31.0052 30.8779C31.0755 30.8202 31.1451 30.7619 31.2142 30.7028C31.2832 30.6437 31.3516 30.5839 31.4193 30.5233C31.487 30.4627 31.5541 30.4014 31.6205 30.3394C31.6869 30.2774 31.7526 30.2146 31.8177 30.1512C31.8827 30.0878 31.9471 30.0236 32.0108 29.9588C32.0744 29.8939 32.1374 29.8284 32.1996 29.7622C32.2619 29.696 32.3234 29.6292 32.3842 29.5616C32.4451 29.4941 32.5051 29.4259 32.5644 29.3571C32.6238 29.2883 32.6823 29.2189 32.7402 29.1487C32.798 29.0787 32.8551 29.008 32.9114 28.9366C32.9677 28.8653 33.0232 28.7934 33.078 28.7209C33.1327 28.6484 33.1867 28.5753 33.2399 28.5016C33.293 28.4279 33.3454 28.3536 33.397 28.2788C33.4485 28.204 33.4993 28.1286 33.5492 28.0527C33.5992 27.9768 33.6483 27.9003 33.6965 27.8234C35.5616 24.8961 36.3192 21.164 35.5605 17.7598C35.5371 17.6565 35.5123 17.5535 35.486 17.4508C35.4598 17.3482 35.4321 17.2459 35.4031 17.144C35.3741 17.0421 35.3436 16.9406 35.3118 16.8396C35.28 16.7385 35.2468 16.6379 35.2123 16.5378C35.1777 16.4376 35.1417 16.338 35.1044 16.2388C35.0671 16.1396 35.0285 16.041 34.9885 15.9428C34.9485 15.8447 34.9072 15.7472 34.8645 15.6502C34.8219 15.5533 34.7779 15.4569 34.7326 15.3611C34.6873 15.2653 34.6407 15.1702 34.5928 15.0757C34.5449 14.9812 34.4957 14.8873 34.4452 14.7942C34.3947 14.701 34.343 14.6086 34.29 14.5168C34.237 14.4251 34.1827 14.3341 34.1273 14.2438C34.0718 14.1536 34.015 14.0641 33.9571 13.9754C33.8992 13.8867 33.84 13.7988 33.7797 13.7117C33.7193 13.6246 33.6578 13.5384 33.5951 13.453C33.5324 13.3675 33.4685 13.283 33.4035 13.1994C33.153 12.8713 32.8974 12.5116 32.5448 12.2873C32.2904 12.1253 31.9948 12.0156 31.714 11.9078C30.5663 11.467 29.3633 11.1921 28.1304 11.1714C27.9246 11.1679 27.7049 11.1585 27.5003 11.1802ZM21.6642 13.2401C21.5769 13.3046 21.4904 13.3701 21.4047 13.4368C21.3189 13.5034 21.2341 13.571 21.15 13.6397C21.066 13.7084 20.9828 13.7782 20.9004 13.8489C20.8181 13.9197 20.7366 13.9914 20.656 14.0641C20.5755 14.1369 20.4958 14.2106 20.417 14.2853C20.3382 14.36 20.2604 14.4356 20.1835 14.5123C20.1066 14.5889 20.0306 14.6664 19.9556 14.7449C19.8806 14.8233 19.8065 14.9027 19.7335 14.983C19.6604 15.0633 19.5884 15.1445 19.5173 15.2265C19.4462 15.3086 19.3761 15.3915 19.3071 15.4753C19.2381 15.559 19.1701 15.6437 19.1031 15.7291C19.0361 15.8145 18.9702 15.9008 18.9054 15.9878C18.8405 16.0749 18.7768 16.1627 18.714 16.2514C18.6514 16.34 18.5898 16.4294 18.5292 16.5195C18.4687 16.6096 18.4094 16.7005 18.3511 16.7921C18.2928 16.8837 18.2357 16.9759 18.1797 17.0689C18.1237 17.1619 18.0688 17.2556 18.0151 17.35C17.9614 17.4443 17.9089 17.5393 17.8575 17.6349C17.8061 17.7305 17.7559 17.8268 17.7069 17.9236C17.6579 18.0205 17.61 18.1179 17.5634 18.216C17.5168 18.314 17.4714 18.4126 17.4271 18.5117C17.3829 18.6109 17.3399 18.7106 17.2982 18.8107C17.2564 18.9109 17.2159 19.0117 17.1766 19.1128C17.1373 19.214 17.0992 19.3157 17.0624 19.4178C17.0257 19.52 16.9901 19.6225 16.9558 19.7255C16.9215 19.8285 16.8885 19.9319 16.8568 20.0357C16.825 20.1396 16.7946 20.2438 16.7654 20.3483C16.7362 20.4529 16.7083 20.5578 16.6817 20.663C16.655 20.7682 16.6297 20.8738 16.6057 20.9797C16.5817 21.0855 16.5589 21.1917 16.5375 21.2981C16.5161 21.4045 16.496 21.5112 16.4771 21.6181C16.4583 21.725 16.4408 21.8321 16.4247 21.9395C16.0589 24.3023 16.2498 26.7739 17.2905 28.95C17.4563 29.2967 17.6341 29.6449 17.8461 29.9658C18.0005 29.8593 18.1535 29.7508 18.3051 29.6404C21.2962 27.4264 23.3197 23.9116 23.8668 20.2455C24.1405 18.4114 23.9802 16.528 23.2381 14.8185C23.1135 14.5314 22.9931 14.2009 22.8039 13.9494C22.6451 13.7385 21.9424 13.2838 21.693 13.2425C21.6835 13.2409 21.6738 13.2409 21.6642 13.2401ZM33.1532 12.6518C33.6127 13.1441 34.0523 13.6418 34.4342 14.1977C35.7821 16.1596 36.4347 18.6148 36.3544 20.9876C36.2287 24.7027 34.7565 28.1482 32.0256 30.6974C29.8546 32.724 26.7095 34.1612 23.7011 34.0566C23.1975 34.0391 22.699 33.9941 22.2076 33.8795C22.7444 34.1558 23.2725 34.3481 23.8585 34.4877C26.6048 35.0655 29.4177 34.4846 31.7636 32.9551C31.8553 32.895 31.9462 32.8338 32.0364 32.7716C32.1266 32.7093 32.2161 32.6459 32.3047 32.5814C32.3934 32.5169 32.4812 32.4514 32.5683 32.3848C32.6554 32.3181 32.7416 32.2505 32.827 32.1818C32.9124 32.113 32.997 32.0433 33.0807 31.9725C33.1643 31.9017 33.2472 31.8299 33.3291 31.7571C33.4111 31.6843 33.4921 31.6105 33.5723 31.5357C33.6524 31.4609 33.7316 31.3851 33.8099 31.3084C33.8882 31.2317 33.9656 31.154 34.0419 31.0754C34.1183 30.9968 34.1938 30.9172 34.2682 30.8368C34.3427 30.7563 34.4161 30.675 34.4886 30.5927C34.5611 30.5105 34.6326 30.4273 34.703 30.3434C34.7734 30.2594 34.8428 30.1745 34.9112 30.0888C34.9796 30.0031 35.0469 29.9166 35.1131 29.8293C35.1794 29.742 35.2446 29.6538 35.3087 29.5649C35.3728 29.476 35.4358 29.3863 35.4977 29.2958C35.5596 29.2053 35.6204 29.1141 35.6801 29.0222C35.7398 28.9302 35.7983 28.8376 35.8557 28.7442C35.9132 28.6508 35.9694 28.5568 36.0246 28.462C36.0797 28.3673 36.1336 28.2718 36.1864 28.1758C36.2392 28.0797 36.2908 27.983 36.3413 27.8857C36.3917 27.7883 36.4409 27.6904 36.489 27.5919C36.537 27.4933 36.5839 27.3942 36.6295 27.2945C36.6751 27.1949 36.7195 27.0947 36.7627 26.9939C36.8058 26.8931 36.8478 26.7918 36.8885 26.6901C36.9292 26.5883 36.9686 26.486 37.0068 26.3832C37.045 26.2805 37.082 26.1773 37.1176 26.0737C37.1533 25.97 37.1878 25.8659 37.2209 25.7614C37.254 25.657 37.2859 25.5521 37.3165 25.4468C37.347 25.3415 37.3763 25.2359 37.4043 25.1299C37.4323 25.0239 37.459 24.9176 37.4844 24.811C37.5099 24.7043 37.534 24.5974 37.5567 24.4902C38.1944 21.4561 37.7629 18.1062 36.0478 15.4803C35.4317 14.5368 34.6124 13.6759 33.723 12.9861C33.5861 12.88 33.3631 12.6892 33.1905 12.6563C33.1782 12.654 33.1657 12.6533 33.1532 12.6518ZM23.5919 14.5246C23.8474 15.2278 24.1144 15.9196 24.2687 16.6539C24.7953 19.1594 24.229 21.8813 23.1578 24.1699C22.1408 26.3424 20.1626 29.0783 17.9425 30.1441C18.285 30.638 18.6243 31.1416 19.0268 31.5893C19.5894 31.2766 20.0716 30.896 20.5611 30.4814C20.6272 30.4253 20.6927 30.3687 20.7578 30.3114C20.8229 30.2541 20.8874 30.1963 20.9514 30.1378C21.0154 30.0794 21.0788 30.0204 21.1417 29.9608C21.2047 29.9012 21.267 29.841 21.3288 29.7803C21.3906 29.7196 21.4519 29.6583 21.5126 29.5964C21.5733 29.5346 21.6334 29.4722 21.693 29.4092C21.7526 29.3463 21.8115 29.2828 21.8699 29.2188C21.9283 29.1547 21.9861 29.0902 22.0434 29.0251C22.1006 28.96 22.1572 28.8944 22.2133 28.8283C22.2693 28.7622 22.3247 28.6956 22.3795 28.6285C22.4343 28.5614 22.4885 28.4937 22.5421 28.4256C22.5957 28.3575 22.6487 28.2889 22.701 28.2198C22.7533 28.1508 22.805 28.0812 22.8561 28.0112C22.9071 27.9412 22.9576 27.8707 23.0073 27.7998C23.0571 27.7288 23.1062 27.6574 23.1547 27.5856C23.2032 27.5138 23.251 27.4415 23.2982 27.3688C23.3453 27.2961 23.3918 27.2229 23.4376 27.1494C23.4834 27.0758 23.5286 27.0019 23.5731 26.9275C23.6175 26.8531 23.6613 26.7783 23.7044 26.7032C23.7475 26.628 23.79 26.5524 23.8317 26.4764C23.8734 26.4005 23.9145 26.3242 23.9548 26.2475C23.9951 26.1708 24.0348 26.0937 24.0737 26.0163C24.1126 25.9389 24.1508 25.8611 24.1883 25.783C24.2259 25.7049 24.2627 25.6264 24.2987 25.5476C24.3348 25.4688 24.3702 25.3897 24.4048 25.3103C24.4395 25.2308 24.4734 25.1511 24.5066 25.0711C24.5398 24.991 24.5722 24.9106 24.6039 24.83C24.6356 24.7493 24.6666 24.6684 24.6969 24.5872C24.7271 24.506 24.7566 24.4245 24.7854 24.3428C24.8141 24.261 24.8421 24.179 24.8694 24.0968C24.8967 24.0145 24.9232 23.932 24.9489 23.8492C24.9747 23.7665 24.9997 23.6835 25.0239 23.6003C25.7389 21.1049 25.7897 18.1029 24.4939 15.7766C24.3487 15.516 23.8235 14.6342 23.5919 14.5246ZM23.4924 12.1261C22.9896 12.3742 22.4566 12.6381 22.009 12.979C23.8411 13.898 25.0014 15.3337 25.6418 17.2703C26.6075 20.1908 25.9311 23.5767 24.5755 26.2629C23.4566 28.4802 21.7467 30.5326 19.6153 31.8386C19.5222 31.8964 19.4267 31.9524 19.3357 32.0135C19.4537 32.1208 19.5692 32.2307 19.6821 32.3433C23.2005 30.0102 25.6983 26.1682 26.5371 22.0446C27.092 19.3167 26.8002 16.3591 25.2357 14.0032C24.8344 13.3988 24.282 12.6745 23.6948 12.244C23.644 12.2069 23.5717 12.1423 23.5103 12.128C23.5044 12.1266 23.4984 12.1267 23.4924 12.1261Z" fill="black"/>
</g>
<defs>
<clipPath id="clip0_25_266">
<rect width="40" height="40" fill="white" transform="translate(-0.00427246)"/>
</clipPath>
</defs>
</svg>
